<svg width="50" height="50" viewBox="0 0 50 50" fill="none" xmlns="http://www.w3.org/2000/svg">
<g clip-path="url(#clip0_185_150)">
<path fill-rule="evenodd" clip-rule="evenodd" d="M21.717 27.6908C22.47 32.1261 23.3847 36.7585 23.8906 37.7114C24.6082 39.0614 26.2876 39.5849 27.6406 38.8673C28.9906 38.1497 29.5082 36.4644 28.7906 35.1144C28.2847 34.1614 24.9641 30.8055 21.717 27.6908ZM20.5758 22.5761C22.1788 24.0585 30.2347 31.5555 31.3906 33.7379C32.867 36.5202 31.8023 39.9849 29.017 41.4644C28.167 41.9144 27.2523 42.1261 26.3523 42.1261C24.3023 42.1261 22.317 41.0232 21.2906 39.0908C20.1347 36.9085 18.4494 26.0349 18.1229 23.8761C18.0317 23.2585 18.3376 22.6467 18.8876 22.3585C19.4435 22.0644 20.1141 22.1496 20.5758 22.5761ZM25.0011 7.34351C38.7864 7.34351 50.0011 18.5611 50.0011 32.3435C50.0011 34.3523 49.7688 36.3317 49.307 38.2258L49.0364 39.3494H35.3806V36.4082H46.6894C46.9364 35.0876 47.06 33.7229 47.06 32.3435C47.06 20.1788 37.1629 10.2847 25.0011 10.2847C12.8364 10.2847 2.9423 20.1788 2.9423 32.3435C2.9423 33.7229 3.06584 35.0876 3.30995 36.4082H16.0041V39.3494H0.962896L0.692323 38.2258C0.233442 36.3317 0.00109863 34.3523 0.00109863 32.3435C0.00109863 18.5611 11.2158 7.34351 25.0011 7.34351ZM39.13 17.5176L41.2094 19.597L38.2741 22.5323L36.1946 20.4529L39.13 17.5176ZM10.87 17.5176L13.8052 20.4529L11.7258 22.5323L8.79058 19.597L10.87 17.5176L10.87 17.5176ZM26.4706 12.2738V16.4267H23.5294V12.2738L26.4706 12.2738Z" fill="url(#paint0_linear_185_150)"/>
</g>
<defs>
<linearGradient id="paint0_linear_185_150" x1="25.0011" y1="7.34351" x2="25.0011" y2="42.1261" gradientUnits="userSpaceOnUse">
<stop stop-color="#EC4899"/>
<stop offset="0.5" stop-color="#BF6CFF"/>
<stop offset="1" stop-color="#5821FC"/>
</linearGradient>
<clipPath id="clip0_185_150">
<rect width="50" height="50" fill="white"/>
</clipPath>
</defs>
</svg>
