<svg width="45" height="46" viewBox="0 0 45 46" fill="none" xmlns="http://www.w3.org/2000/svg">
<path d="M23.0291 45.0568C19.4041 45.0568 16.1768 44.5625 13.3473 43.5739C10.5178 42.5966 8.12571 41.1591 6.17117 39.2614C4.21662 37.375 2.72798 35.0682 1.70526 32.3409C0.682528 29.6136 0.171165 26.5114 0.171165 23.0341C0.171165 19.6023 0.682528 16.4886 1.70526 13.6932C2.73935 10.8977 4.24503 8.5 6.2223 6.5C8.19957 4.48864 10.6143 2.94318 13.4666 1.86364C16.3303 0.784089 19.5916 0.244316 23.2507 0.244316C26.6371 0.244316 29.6598 0.738635 32.3189 1.72727C34.9893 2.71591 37.2507 4.125 39.103 5.95455C40.9666 7.77273 42.3814 9.9375 43.3473 12.4489C44.3246 14.9489 44.8075 17.7159 44.7962 20.75C44.8075 22.8409 44.6257 24.7614 44.2507 26.5114C43.8757 28.2614 43.2848 29.7898 42.478 31.0966C41.6825 32.392 40.6371 33.4205 39.3416 34.1818C38.0462 34.9318 36.478 35.358 34.6371 35.4602C33.3189 35.5625 32.2507 35.4659 31.4325 35.1705C30.6143 34.875 29.9893 34.4375 29.5575 33.858C29.1371 33.267 28.8643 32.5795 28.7393 31.7955H28.5348C28.2621 32.4773 27.728 33.0966 26.9325 33.6534C26.1371 34.1989 25.1655 34.625 24.0178 34.9318C22.8814 35.2273 21.6712 35.3352 20.3871 35.2557C19.0462 35.1761 17.7734 34.8636 16.5689 34.3182C15.3757 33.7727 14.3132 32.983 13.3814 31.9489C12.4609 30.9148 11.7337 29.6364 11.1996 28.1136C10.6768 26.5909 10.4098 24.8295 10.3984 22.8295C10.4098 20.8523 10.6882 19.1307 11.2337 17.6648C11.7905 16.1989 12.5234 14.9659 13.4325 13.9659C14.353 12.9659 15.3757 12.1818 16.5007 11.6136C17.6257 11.0455 18.7564 10.6818 19.8928 10.5227C21.1768 10.3295 22.3928 10.3295 23.5405 10.5227C24.6882 10.7159 25.6541 11.0284 26.4382 11.4602C27.2337 11.892 27.728 12.358 27.9212 12.858H28.1598V10.9489H33.495V27.5852C33.5064 28.3693 33.6825 28.9773 34.0234 29.4091C34.3643 29.8409 34.8246 30.0568 35.4041 30.0568C36.1882 30.0568 36.8416 29.7102 37.3643 29.017C37.8984 28.3239 38.2962 27.2614 38.5575 25.8295C38.8303 24.3977 38.9666 22.5739 38.9666 20.358C38.9666 18.2216 38.6825 16.3466 38.1143 14.733C37.5575 13.108 36.7734 11.7273 35.7621 10.5909C34.7621 9.44318 33.5973 8.51136 32.2678 7.79545C30.9382 7.07954 29.495 6.55682 27.9382 6.22727C26.3928 5.89773 24.8018 5.73295 23.1655 5.73295C20.3359 5.73295 17.8643 6.16477 15.7507 7.02841C13.6371 7.88068 11.8757 9.07954 10.4666 10.625C9.05753 12.1705 8.00071 13.983 7.29617 16.0625C6.60298 18.1307 6.25071 20.3864 6.23935 22.8295C6.25071 25.5227 6.62571 27.9091 7.36435 29.9886C8.11435 32.0568 9.21662 33.7955 10.6712 35.2045C12.1257 36.6136 13.9212 37.6818 16.0575 38.4091C18.1939 39.1364 20.6484 39.5 23.4212 39.5C24.728 39.5 26.0064 39.4034 27.2564 39.2102C28.5064 39.0284 29.6371 38.8011 30.6484 38.5284C31.6598 38.267 32.4723 38.0114 33.0859 37.7614L34.7734 42.7045C34.0575 43.1136 33.0859 43.4943 31.8587 43.8466C30.6428 44.2102 29.2678 44.5 27.7337 44.7159C26.2109 44.9432 24.6428 45.0568 23.0291 45.0568ZM22.245 29.6477C23.6314 29.6477 24.7337 29.3807 25.5518 28.8466C26.3814 28.3125 26.9723 27.5227 27.3246 26.4773C27.6882 25.4205 27.8587 24.1193 27.8359 22.5739C27.8246 21.2102 27.6484 20.0568 27.3075 19.1136C26.978 18.1591 26.4041 17.4375 25.5859 16.9489C24.7791 16.4489 23.6541 16.1989 22.2109 16.1989C20.9496 16.1989 19.8757 16.4659 18.9893 17C18.1143 17.5341 17.4439 18.2841 16.978 19.25C16.5234 20.2045 16.2905 21.3295 16.2791 22.625C16.2905 23.8295 16.4837 24.9716 16.8587 26.0511C17.2337 27.1193 17.853 27.9886 18.7166 28.6591C19.5803 29.3182 20.7564 29.6477 22.245 29.6477Z" fill="url(#paint0_linear_184_92)"/>
<defs>
<linearGradient id="paint0_linear_184_92" x1="1.5" y1="22.1904" x2="45" y2="22.1904" gradientUnits="userSpaceOnUse">
<stop stop-color="#EB499B"/>
<stop offset="0.5" stop-color="#A179E8"/>
<stop offset="1" stop-color="#5720FC"/>
</linearGradient>
</defs>
</svg>
