<svg width="45" height="47" viewBox="0 0 45 47" fill="none" xmlns="http://www.w3.org/2000/svg">
<path d="M41.3649 4.29382L23.206 0.0252704C23.0053 -0.00842347 22.7997 -0.00842347 22.599 0.0252704C22.4313 0.00193034 22.2608 0.00193034 22.0932 0.0252704L3.8331 4.29382C2.67531 4.56038 1.65699 5.19588 0.958145 6.08798C0.259299 6.98008 -0.0750621 8.07133 0.0141668 9.16882L1.07639 22.0211C1.50181 27.1194 3.43338 32.0129 6.6614 36.1702C9.88943 40.3275 14.2906 43.5898 19.387 45.6031L21.6127 46.4894C21.8931 46.5972 22.194 46.6527 22.4978 46.6527C22.8017 46.6527 23.1025 46.5972 23.383 46.4894L25.6086 45.6031C30.7051 43.5898 35.1062 40.3275 38.3343 36.1702C41.5623 32.0129 43.4939 27.1194 43.9193 22.0211L44.9815 9.16882C45.0812 8.09615 44.7755 7.02469 44.1164 6.13616C43.4572 5.24763 42.4851 4.59672 41.3649 4.29382ZM31.982 18.0091L21.8656 27.3393C21.6305 27.5579 21.3507 27.7315 21.0425 27.8499C20.7343 27.9683 20.4038 28.0293 20.0699 28.0293C19.736 28.0293 19.4055 27.9683 19.0973 27.8499C18.7891 27.7315 18.5094 27.5579 18.2742 27.3393L13.2161 22.6742C12.7398 22.235 12.4723 21.6393 12.4723 21.0181C12.4723 20.397 12.7398 19.8012 13.2161 19.362C13.6923 18.9228 14.3382 18.676 15.0117 18.676C15.6852 18.676 16.3311 18.9228 16.8074 19.362L20.0699 22.3943L28.3906 14.6969C28.8669 14.2577 29.5128 14.011 30.1863 14.011C30.8598 14.011 31.5057 14.2577 31.982 14.6969C32.4582 15.1362 32.7257 15.7319 32.7257 16.353C32.7257 16.9742 32.4582 17.5699 31.982 18.0091Z" fill="url(#paint0_linear_184_98)"/>
<defs>
<linearGradient id="paint0_linear_184_98" x1="1.35" y1="21.4602" x2="44.1003" y2="21.0262" gradientUnits="userSpaceOnUse">
<stop stop-color="#E84B9E"/>
<stop offset="0.5" stop-color="#A577E5"/>
<stop offset="1" stop-color="#612CF9"/>
</linearGradient>
</defs>
</svg>
