<svg width="50" height="50" viewBox="0 0 50 50" fill="none" xmlns="http://www.w3.org/2000/svg">
<path d="M46 2H16C14.9 2 14 2.9 14 4V6H12C10.9 6 10 6.9 10 8V10H8C6.9 10 6 10.9 6 12V14H4C2.9 14 2 14.9 2 16V46C2 47.1 2.9 48 4 48H34C35.1 48 36 47.1 36 46V44H38C39.1 44 40 43.1 40 42V40H42C43.1 40 44 39.1 44 38V36H46C47.1 36 48 35.1 48 34V4C48 2.9 47.1 2 46 2ZM15 4C15 3.45 15.45 3 16 3H46C46.55 3 47 3.45 47 4V7H43.7C43.35 6.4 42.7 6 42 6H41.5H38.5H15V4ZM11 8C11 7.45 11.45 7 12 7H42C42.55 7 43 7.45 43 8V11H39.7C39.35 10.4 38.7 10 38 10H37.5H34.5H11V8ZM7 12C7 11.45 7.45 11 8 11H38C38.55 11 39 11.45 39 12V15H35.7C35.35 14.4 34.7 14 34 14H33.5H30.5H7V12ZM4 15H34C34.55 15 35 15.45 35 16V19H3V16C3 15.45 3.45 15 4 15ZM35 46C35 46.55 34.55 47 34 47H4C3.45 47 3 46.55 3 46V20H35V46ZM39 42C39 42.55 38.55 43 38 43H36V16H39V42ZM43 38C43 38.55 42.55 39 42 39H40V12H43V38ZM46 35H44V8H47V34C47 34.55 46.55 35 46 35Z" fill="url(#paint0_linear_185_102)"/>
<path d="M26.5 18C27.0523 18 27.5 17.5523 27.5 17C27.5 16.4477 27.0523 16 26.5 16C25.9477 16 25.5 16.4477 25.5 17C25.5 17.5523 25.9477 18 26.5 18Z" fill="url(#paint1_linear_185_102)"/>
<path d="M29.5 18C30.0523 18 30.5 17.5523 30.5 17C30.5 16.4477 30.0523 16 29.5 16C28.9477 16 28.5 16.4477 28.5 17C28.5 17.5523 28.9477 18 29.5 18Z" fill="url(#paint2_linear_185_102)"/>
<path d="M32.5 18C33.0523 18 33.5 17.5523 33.5 17C33.5 16.4477 33.0523 16 32.5 16C31.9477 16 31.5 16.4477 31.5 17C31.5 17.5523 31.9477 18 32.5 18Z" fill="url(#paint3_linear_185_102)"/>
<path d="M30.5 14C31.0523 14 31.5 13.5523 31.5 13C31.5 12.4477 31.0523 12 30.5 12C29.9477 12 29.5 12.4477 29.5 13C29.5 13.5523 29.9477 14 30.5 14Z" fill="url(#paint4_linear_185_102)"/>
<path d="M33.5 14C34.0523 14 34.5 13.5523 34.5 13C34.5 12.4477 34.0523 12 33.5 12C32.9477 12 32.5 12.4477 32.5 13C32.5 13.5523 32.9477 14 33.5 14Z" fill="url(#paint5_linear_185_102)"/>
<path d="M36.5 14C37.0523 14 37.5 13.5523 37.5 13C37.5 12.4477 37.0523 12 36.5 12C35.9477 12 35.5 12.4477 35.5 13C35.5 13.5523 35.9477 14 36.5 14Z" fill="url(#paint6_linear_185_102)"/>
<path d="M34.5 10C35.0523 10 35.5 9.55228 35.5 9C35.5 8.44772 35.0523 8 34.5 8C33.9477 8 33.5 8.44772 33.5 9C33.5 9.55228 33.9477 10 34.5 10Z" fill="url(#paint7_linear_185_102)"/>
<path d="M37.5 10C38.0523 10 38.5 9.55228 38.5 9C38.5 8.44772 38.0523 8 37.5 8C36.9477 8 36.5 8.44772 36.5 9C36.5 9.55228 36.9477 10 37.5 10Z" fill="url(#paint8_linear_185_102)"/>
<path d="M40.5 10C41.0523 10 41.5 9.55228 41.5 9C41.5 8.44772 41.0523 8 40.5 8C39.9477 8 39.5 8.44772 39.5 9C39.5 9.55228 39.9477 10 40.5 10Z" fill="url(#paint9_linear_185_102)"/>
<path d="M38.5 6C39.0523 6 39.5 5.55228 39.5 5C39.5 4.44772 39.0523 4 38.5 4C37.9477 4 37.5 4.44772 37.5 5C37.5 5.55228 37.9477 6 38.5 6Z" fill="url(#paint10_linear_185_102)"/>
<path d="M41.5 6C42.0523 6 42.5 5.55228 42.5 5C42.5 4.44772 42.0523 4 41.5 4C40.9477 4 40.5 4.44772 40.5 5C40.5 5.55228 40.9477 6 41.5 6Z" fill="url(#paint11_linear_185_102)"/>
<path d="M44.5 6C45.0523 6 45.5 5.55228 45.5 5C45.5 4.44772 45.0523 4 44.5 4C43.9477 4 43.5 4.44772 43.5 5C43.5 5.55228 43.9477 6 44.5 6Z" fill="url(#paint12_linear_185_102)"/>
<path d="M6 27.5H32C32.85 27.5 33.5 26.85 33.5 26V23C33.5 22.15 32.85 21.5 32 21.5H6C5.15 21.5 4.5 22.15 4.5 23V26C4.5 26.85 5.15 27.5 6 27.5ZM5.5 23C5.5 22.7 5.7 22.5 6 22.5H32C32.3 22.5 32.5 22.7 32.5 23V26C32.5 26.3 32.3 26.5 32 26.5H6C5.7 26.5 5.5 26.3 5.5 26V23Z" fill="url(#paint13_linear_185_102)"/>
<path d="M18 34.5H6C5.15 34.5 4.5 35.15 4.5 36V44C4.5 44.85 5.15 45.5 6 45.5H18C18.85 45.5 19.5 44.85 19.5 44V36C19.5 35.15 18.85 34.5 18 34.5ZM18.5 44C18.5 44.3 18.3 44.5 18 44.5H6C5.7 44.5 5.5 44.3 5.5 44V36C5.5 35.7 5.7 35.5 6 35.5H18C18.3 35.5 18.5 35.7 18.5 36V44Z" fill="url(#paint14_linear_185_102)"/>
<path d="M33.5 32H5.5C5.2 32 5 32.2 5 32.5C5 32.8 5.2 33 5.5 33H33.5C33.8 33 34 32.8 34 32.5C34 32.2 33.8 32 33.5 32Z" fill="url(#paint15_linear_185_102)"/>
<path d="M33.5 29.5H5.5C5.2 29.5 5 29.7 5 30C5 30.3 5.2 30.5 5.5 30.5H33.5C33.8 30.5 34 30.3 34 30C34 29.7 33.8 29.5 33.5 29.5Z" fill="url(#paint16_linear_185_102)"/>
<path d="M33 34.5H21.5C21.2 34.5 21 34.7 21 35C21 35.3 21.2 35.5 21.5 35.5H33C33.3 35.5 33.5 35.3 33.5 35C33.5 34.7 33.3 34.5 33 34.5Z" fill="url(#paint17_linear_185_102)"/>
<path d="M33 37H21.5C21.2 37 21 37.2 21 37.5C21 37.8 21.2 38 21.5 38H33C33.3 38 33.5 37.8 33.5 37.5C33.5 37.2 33.3 37 33 37Z" fill="url(#paint18_linear_185_102)"/>
<path d="M33 39.5H21.5C21.2 39.5 21 39.7 21 40C21 40.3 21.2 40.5 21.5 40.5H33C33.3 40.5 33.5 40.3 33.5 40C33.5 39.7 33.3 39.5 33 39.5Z" fill="url(#paint19_linear_185_102)"/>
<path d="M33 42H21.5C21.2 42 21 42.2 21 42.5C21 42.8 21.2 43 21.5 43H33C33.3 43 33.5 42.8 33.5 42.5C33.5 42.2 33.3 42 33 42Z" fill="url(#paint20_linear_185_102)"/>
<path d="M33 44.5H21.5C21.2 44.5 21 44.7 21 45C21 45.3 21.2 45.5 21.5 45.5H33C33.3 45.5 33.5 45.3 33.5 45C33.5 44.7 33.3 44.5 33 44.5Z" fill="url(#paint21_linear_185_102)"/>
<defs>
<linearGradient id="paint0_linear_185_102" x1="25" y1="2" x2="25" y2="48" gradientUnits="userSpaceOnUse">
<stop stop-color="#EC4899"/>
<stop offset="0.5" stop-color="#BF6CFF"/>
<stop offset="1" stop-color="#5821FC"/>
</linearGradient>
<linearGradient id="paint1_linear_185_102" x1="26.5" y1="16" x2="26.5" y2="18" gradientUnits="userSpaceOnUse">
<stop stop-color="#EC4899"/>
<stop offset="0.5" stop-color="#BF6CFF"/>
<stop offset="1" stop-color="#5821FC"/>
</linearGradient>
<linearGradient id="paint2_linear_185_102" x1="29.5" y1="16" x2="29.5" y2="18" gradientUnits="userSpaceOnUse">
<stop stop-color="#EC4899"/>
<stop offset="0.5" stop-color="#BF6CFF"/>
<stop offset="1" stop-color="#5821FC"/>
</linearGradient>
<linearGradient id="paint3_linear_185_102" x1="32.5" y1="16" x2="32.5" y2="18" gradientUnits="userSpaceOnUse">
<stop stop-color="#EC4899"/>
<stop offset="0.5" stop-color="#BF6CFF"/>
<stop offset="1" stop-color="#5821FC"/>
</linearGradient>
<linearGradient id="paint4_linear_185_102" x1="30.5" y1="12" x2="30.5" y2="14" gradientUnits="userSpaceOnUse">
<stop stop-color="#EC4899"/>
<stop offset="0.5" stop-color="#BF6CFF"/>
<stop offset="1" stop-color="#5821FC"/>
</linearGradient>
<linearGradient id="paint5_linear_185_102" x1="33.5" y1="12" x2="33.5" y2="14" gradientUnits="userSpaceOnUse">
<stop stop-color="#EC4899"/>
<stop offset="0.5" stop-color="#BF6CFF"/>
<stop offset="1" stop-color="#5821FC"/>
</linearGradient>
<linearGradient id="paint6_linear_185_102" x1="36.5" y1="12" x2="36.5" y2="14" gradientUnits="userSpaceOnUse">
<stop stop-color="#EC4899"/>
<stop offset="0.5" stop-color="#BF6CFF"/>
<stop offset="1" stop-color="#5821FC"/>
</linearGradient>
<linearGradient id="paint7_linear_185_102" x1="34.5" y1="8" x2="34.5" y2="10" gradientUnits="userSpaceOnUse">
<stop stop-color="#EC4899"/>
<stop offset="0.5" stop-color="#BF6CFF"/>
<stop offset="1" stop-color="#5821FC"/>
</linearGradient>
<linearGradient id="paint8_linear_185_102" x1="37.5" y1="8" x2="37.5" y2="10" gradientUnits="userSpaceOnUse">
<stop stop-color="#EC4899"/>
<stop offset="0.5" stop-color="#BF6CFF"/>
<stop offset="1" stop-color="#5821FC"/>
</linearGradient>
<linearGradient id="paint9_linear_185_102" x1="40.5" y1="8" x2="40.5" y2="10" gradientUnits="userSpaceOnUse">
<stop stop-color="#EC4899"/>
<stop offset="0.5" stop-color="#BF6CFF"/>
<stop offset="1" stop-color="#5821FC"/>
</linearGradient>
<linearGradient id="paint10_linear_185_102" x1="38.5" y1="4" x2="38.5" y2="6" gradientUnits="userSpaceOnUse">
<stop stop-color="#EC4899"/>
<stop offset="0.5" stop-color="#BF6CFF"/>
<stop offset="1" stop-color="#5821FC"/>
</linearGradient>
<linearGradient id="paint11_linear_185_102" x1="41.5" y1="4" x2="41.5" y2="6" gradientUnits="userSpaceOnUse">
<stop stop-color="#EC4899"/>
<stop offset="0.5" stop-color="#BF6CFF"/>
<stop offset="1" stop-color="#5821FC"/>
</linearGradient>
<linearGradient id="paint12_linear_185_102" x1="44.5" y1="4" x2="44.5" y2="6" gradientUnits="userSpaceOnUse">
<stop stop-color="#EC4899"/>
<stop offset="0.5" stop-color="#BF6CFF"/>
<stop offset="1" stop-color="#5821FC"/>
</linearGradient>
<linearGradient id="paint13_linear_185_102" x1="19" y1="21.5" x2="19" y2="27.5" gradientUnits="userSpaceOnUse">
<stop stop-color="#EC4899"/>
<stop offset="0.5" stop-color="#BF6CFF"/>
<stop offset="1" stop-color="#5821FC"/>
</linearGradient>
<linearGradient id="paint14_linear_185_102" x1="12" y1="34.5" x2="12" y2="45.5" gradientUnits="userSpaceOnUse">
<stop stop-color="#EC4899"/>
<stop offset="0.5" stop-color="#BF6CFF"/>
<stop offset="1" stop-color="#5821FC"/>
</linearGradient>
<linearGradient id="paint15_linear_185_102" x1="19.5" y1="32" x2="19.5" y2="33" gradientUnits="userSpaceOnUse">
<stop stop-color="#EC4899"/>
<stop offset="0.5" stop-color="#BF6CFF"/>
<stop offset="1" stop-color="#5821FC"/>
</linearGradient>
<linearGradient id="paint16_linear_185_102" x1="19.5" y1="29.5" x2="19.5" y2="30.5" gradientUnits="userSpaceOnUse">
<stop stop-color="#EC4899"/>
<stop offset="0.5" stop-color="#BF6CFF"/>
<stop offset="1" stop-color="#5821FC"/>
</linearGradient>
<linearGradient id="paint17_linear_185_102" x1="27.25" y1="34.5" x2="27.25" y2="35.5" gradientUnits="userSpaceOnUse">
<stop stop-color="#EC4899"/>
<stop offset="0.5" stop-color="#BF6CFF"/>
<stop offset="1" stop-color="#5821FC"/>
</linearGradient>
<linearGradient id="paint18_linear_185_102" x1="27.25" y1="37" x2="27.25" y2="38" gradientUnits="userSpaceOnUse">
<stop stop-color="#EC4899"/>
<stop offset="0.5" stop-color="#BF6CFF"/>
<stop offset="1" stop-color="#5821FC"/>
</linearGradient>
<linearGradient id="paint19_linear_185_102" x1="27.25" y1="39.5" x2="27.25" y2="40.5" gradientUnits="userSpaceOnUse">
<stop stop-color="#EC4899"/>
<stop offset="0.5" stop-color="#BF6CFF"/>
<stop offset="1" stop-color="#5821FC"/>
</linearGradient>
<linearGradient id="paint20_linear_185_102" x1="27.25" y1="42" x2="27.25" y2="43" gradientUnits="userSpaceOnUse">
<stop stop-color="#EC4899"/>
<stop offset="0.5" stop-color="#BF6CFF"/>
<stop offset="1" stop-color="#5821FC"/>
</linearGradient>
<linearGradient id="paint21_linear_185_102" x1="27.25" y1="44.5" x2="27.25" y2="45.5" gradientUnits="userSpaceOnUse">
<stop stop-color="#EC4899"/>
<stop offset="0.5" stop-color="#BF6CFF"/>
<stop offset="1" stop-color="#5821FC"/>
</linearGradient>
</defs>
</svg>
