<svg width="50" height="50" viewBox="0 0 50 50" fill="none" xmlns="http://www.w3.org/2000/svg">
<g clip-path="url(#clip0_184_82)">
<path d="M10.1578 9.73281C10.8453 10.2563 11.5516 10.7547 12.2844 11.2C11.9109 12.1 11.5797 13.05 11.2828 14.0312H14.2937C14.4656 13.5281 14.6297 13.0172 14.825 12.5391C16.2203 13.1781 17.675 13.6656 19.1672 14.0312H30.8406C32.3516 13.6641 33.8281 13.1656 35.2344 12.5125C35.4297 12.9969 35.5922 13.5188 35.7703 14.0312H38.725C38.4297 13.0484 38.1 12.1016 37.7234 11.2C38.4594 10.7547 39.1672 10.2563 39.8484 9.73281C41.1609 11.0109 42.3047 12.4563 43.2531 14.0312H47.4531C43.3844 5.72188 34.8641 -0.03125 25.0031 -0.03125C15.1391 -0.03125 6.62187 5.72188 2.55469 14.0312H6.75156C7.70156 12.4563 8.84531 11.0078 10.1578 9.73281ZM37.6703 7.89531C37.2859 8.17031 36.9 8.44062 36.4984 8.69062C36 7.77344 35.4578 6.90313 34.8719 6.11875C35.8594 6.63438 36.7875 7.23594 37.6703 7.89531ZM34.0531 10.0031C32.7906 10.5828 31.4906 11.05 30.1531 11.3781C29.7797 8.67813 29.2406 6.07188 28.4734 4.07812C30.6328 5.17031 32.5453 7.24219 34.0531 10.0031ZM24.7188 3.68594C24.8141 3.68437 24.9062 3.67344 25.0031 3.67344C25.1 3.67344 25.1922 3.68437 25.2875 3.68594C25.9719 4.80625 26.7953 7.60313 27.4031 11.8562C26.6078 11.95 25.8078 12.0094 25.0047 12.0094C24.1969 12.0094 23.3984 11.95 22.6063 11.8562C23.2109 7.60313 24.0344 4.80625 24.7188 3.68594ZM21.5172 4.12187C20.7594 6.10938 20.225 8.69531 19.8531 11.3797C18.5359 11.0578 17.2578 10.5984 16.0203 10.0359C17.5219 7.3 19.4078 5.22813 21.5172 4.12187ZM15.1312 6.11875C14.5469 6.90313 14.0078 7.775 13.5031 8.69062C13.1031 8.44219 12.7172 8.17188 12.3328 7.89687C13.2172 7.23594 14.1437 6.63438 15.1312 6.11875Z" fill="url(#paint0_linear_184_82)"/>
<path d="M39.8484 40.2688C39.164 39.7438 38.4515 39.2469 37.7234 38.7984C38.0937 37.9016 38.4265 36.9516 38.725 35.9688H35.7703C35.5999 36.4812 35.4328 37 35.2374 37.4859C33.8296 36.8328 32.35 36.3391 30.8421 35.9688H19.1703C17.6781 36.3344 16.225 36.8234 14.8296 37.4609C14.6312 36.9812 14.4687 36.4688 14.2953 35.9688H11.2859C11.5812 36.9516 11.9125 37.9 12.2859 38.8C11.5515 39.2453 10.8468 39.7438 10.1593 40.2656C8.84839 38.9906 7.70464 37.5438 6.75776 35.9688H2.55933C6.62651 44.275 15.1437 50.0312 25.0062 50.0312C34.8687 50.0312 43.3875 44.275 47.4546 35.9688H43.2546C42.3046 37.5438 41.1609 38.9906 39.8484 40.2688ZM12.3328 42.1062C12.7171 41.8312 13.1046 41.5594 13.5031 41.3125C14.0078 42.2281 14.5468 43.0984 15.1312 43.8828C14.1437 43.3656 13.2171 42.7656 12.3328 42.1062ZM16.0171 39.9672C17.2546 39.4109 18.5328 38.9469 19.85 38.6266C20.2218 41.3125 20.7562 43.8891 21.514 45.8844C19.4078 44.7734 17.5218 42.6984 16.0171 39.9672ZM25.2875 46.3141C25.1921 46.3172 25.1 46.3266 25.0031 46.3266C24.9062 46.3266 24.814 46.3172 24.7187 46.3141C24.0343 45.1938 23.2093 42.3953 22.6031 38.1438C23.3953 38.05 24.1953 37.9891 25.0015 37.9891C25.8093 37.9891 26.6078 38.05 27.4015 38.1438C26.7906 42.3953 25.9718 45.1938 25.2875 46.3141ZM28.4734 45.9203C29.2406 43.9281 29.7796 41.3219 30.1531 38.6203C31.4906 38.95 32.7906 39.4172 34.0531 39.9969C32.5453 42.7594 30.6328 44.8312 28.4734 45.9203ZM34.8718 43.8812C35.4578 43.0937 36 42.2219 36.4984 41.3094C36.8999 41.5594 37.2859 41.8312 37.6703 42.1062C36.7874 42.7656 35.8593 43.3656 34.8718 43.8812Z" fill="url(#paint1_linear_184_82)"/>
<path d="M23.4797 29.9688L24.475 26.475C24.7391 25.5438 24.9422 24.6266 25.125 23.386H25.1657C25.3688 24.6047 25.5516 25.5016 25.7954 26.475L26.7297 29.9688H29.6344L32.6813 20.0391H29.6563L28.8032 23.9782C28.5797 25.1172 28.3766 26.2329 28.2344 27.3704H28.1938C27.9907 26.2313 27.7266 25.1188 27.4625 23.9985L26.4672 20.0391H24.0297L22.9735 24.1204C22.7297 25.0938 22.4454 26.2344 22.2422 27.3704H22.2016C22.0391 26.2313 21.836 25.1344 21.6329 24.0985L20.8407 20.0344H17.6907L20.575 29.9672L23.4797 29.9688Z" fill="url(#paint2_linear_184_82)"/>
<path d="M12.8156 23.975C12.5891 25.1141 12.3906 26.2297 12.25 27.3688H12.2078C12.0062 26.2297 11.7406 25.1156 11.4781 23.9953L10.4781 20.0359H8.04063L6.98438 24.1172C6.74063 25.0922 6.45625 26.2313 6.25313 27.3688H6.2125C6.05 26.2297 5.84688 25.1312 5.64375 24.0953L4.85156 20.0312H1.70312L4.5875 29.9641H7.49219L8.4875 26.4719C8.75156 25.5359 8.95469 24.6219 9.1375 23.3813H9.17813C9.38125 24.6 9.56562 25.4969 9.80937 26.4719L10.7438 29.9641H13.6484L16.6906 20.0312H13.6625L12.8156 23.975Z" fill="url(#paint3_linear_184_82)"/>
<path d="M44.7969 23.975C44.5719 25.1141 44.3703 26.2297 44.2297 27.3688H44.1906C43.9891 26.2297 43.7219 25.1156 43.4578 23.9953L42.4625 20.0359H40.0219L38.9641 24.1172C38.7219 25.0922 38.436 26.2313 38.2313 27.3688H38.1938C38.0313 26.2297 37.8297 25.1312 37.6266 24.0953L36.8328 20.0312H33.6813L36.5703 29.9641H39.4703L40.4703 26.4719C40.7328 25.5359 40.9375 24.6219 41.1203 23.3813H41.1578C41.3594 24.6 41.5422 25.4969 41.786 26.4719L42.7203 29.9641H45.625L48.6703 20.0312H45.6422L44.7969 23.975Z" fill="url(#paint4_linear_184_82)"/>
</g>
<defs>
<linearGradient id="paint0_linear_184_82" x1="25.0039" y1="-0.03125" x2="25.0039" y2="14.0312" gradientUnits="userSpaceOnUse">
<stop stop-color="#E94A9D"/>
<stop offset="0.5" stop-color="#9B75EB"/>
<stop offset="1" stop-color="#5821FC"/>
</linearGradient>
<linearGradient id="paint1_linear_184_82" x1="25.007" y1="35.9688" x2="25.007" y2="50.0312" gradientUnits="userSpaceOnUse">
<stop stop-color="#E94A9D"/>
<stop offset="0.5" stop-color="#9B75EB"/>
<stop offset="1" stop-color="#5821FC"/>
</linearGradient>
<linearGradient id="paint2_linear_184_82" x1="25.186" y1="20.0344" x2="25.186" y2="29.9688" gradientUnits="userSpaceOnUse">
<stop stop-color="#E94A9D"/>
<stop offset="0.5" stop-color="#9B75EB"/>
<stop offset="1" stop-color="#5821FC"/>
</linearGradient>
<linearGradient id="paint3_linear_184_82" x1="9.19688" y1="20.0312" x2="9.19688" y2="29.9641" gradientUnits="userSpaceOnUse">
<stop stop-color="#E94A9D"/>
<stop offset="0.5" stop-color="#9B75EB"/>
<stop offset="1" stop-color="#5821FC"/>
</linearGradient>
<linearGradient id="paint4_linear_184_82" x1="41.1758" y1="20.0312" x2="41.1758" y2="29.9641" gradientUnits="userSpaceOnUse">
<stop stop-color="#E94A9D"/>
<stop offset="0.5" stop-color="#9B75EB"/>
<stop offset="1" stop-color="#5821FC"/>
</linearGradient>
<clipPath id="clip0_184_82">
<rect width="50" height="50" fill="white"/>
</clipPath>
</defs>
</svg>
