<svg width="488" height="426" viewBox="0 0 488 426" fill="none" xmlns="http://www.w3.org/2000/svg">
<g clip-path="url(#clip0_402_35)">
<path d="M75.46 218.21H-87.52L-75.47 102.11H88.89L75.46 218.21Z" fill="#F5F5F5"/>
<path d="M29.6799 124.68C29.6799 124.82 15.09 124.94 -2.90004 124.94C-20.89 124.94 -35.4901 124.82 -35.4901 124.68C-35.4901 124.54 -20.9 124.42 -2.90004 124.42C15.1 124.42 29.6799 124.53 29.6799 124.68Z" fill="#E0E0E0"/>
<path d="M27.75 165.93C27.75 166.08 13.16 166.19 -4.83005 166.19C-22.82 166.19 -37.42 166.08 -37.42 165.93C-37.42 165.78 -22.83 165.67 -4.83005 165.67C13.17 165.67 27.75 165.79 27.75 165.93Z" fill="#E0E0E0"/>
<path d="M5.55001 185C5.55001 185.15 -9.03999 185.26 -27.03 185.26C-45.02 185.26 -59.62 185.15 -59.62 185C-59.62 184.85 -45.03 184.74 -27.03 184.74C-9.02999 184.74 5.55001 184.81 5.55001 185Z" fill="#E0E0E0"/>
<path d="M51 136.33C51 136.47 37.84 136.59 21.6 136.59C5.36001 136.59 -7.81 136.47 -7.81 136.33C-7.81 136.19 5.36001 136.06 21.6 136.06C37.84 136.06 51 136.18 51 136.33Z" fill="#E0E0E0"/>
<path d="M32.87 154.39C32.87 154.54 19.71 154.65 3.47 154.65C-12.77 154.65 -25.93 154.54 -25.93 154.39C-25.93 154.24 -12.77 154.13 3.47 154.13C19.71 154.13 32.87 154.25 32.87 154.39Z" fill="#E0E0E0"/>
<path d="M53.11 177.81C53.11 177.95 39.94 178.07 23.71 178.07C7.47999 178.07 -5.70001 177.95 -5.70001 177.81C-5.70001 177.67 7.46999 177.55 23.71 177.55C39.95 177.55 53.11 177.66 53.11 177.81Z" fill="#E0E0E0"/>
<path d="M64.45 198.73C64.45 198.87 51.28 198.99 35.05 198.99C18.82 198.99 5.63998 198.87 5.63998 198.73C5.63998 198.59 18.8 198.47 35.05 198.47C51.3 198.47 64.45 198.58 64.45 198.73Z" fill="#E0E0E0"/>
<path d="M2.26997 141.23C2.26997 141.37 -10.89 141.49 -27.13 141.49C-43.37 141.49 -56.54 141.37 -56.54 141.23C-56.54 141.09 -43.37 140.97 -27.13 140.97C-10.89 140.97 2.26997 141.08 2.26997 141.23Z" fill="#E0E0E0"/>
<path d="M87.09 114.39C87.09 114.54 50.44 114.65 5.24 114.65C-39.96 114.65 -76.63 114.54 -76.63 114.39C-76.63 114.24 -39.98 114.13 5.24 114.13C50.46 114.13 87.09 114.25 87.09 114.39Z" fill="#E0E0E0"/>
<path d="M498.65 160.16H335.67L347.72 44.0701H512.08L498.65 160.16Z" fill="#F5F5F5"/>
<path d="M353.59 140.68C353.45 140.68 355.13 123.2 357.35 101.68C359.57 80.16 361.49 62.68 361.63 62.74C361.77 62.8 360.09 80.21 357.87 101.74C355.65 123.27 353.73 140.69 353.59 140.68Z" fill="#E0E0E0"/>
<path d="M383.26 66.63C377.812 66.9767 372.348 66.9767 366.9 66.63C372.348 66.2833 377.812 66.2833 383.26 66.63Z" fill="#E0E0E0"/>
<path d="M452.88 66.63C452.88 66.77 438.29 66.89 420.29 66.89C402.29 66.89 387.7 66.77 387.7 66.63C387.7 66.49 402.29 66.37 420.29 66.37C438.29 66.37 452.88 66.49 452.88 66.63Z" fill="#E0E0E0"/>
<path d="M381.34 107.89C375.889 108.237 370.421 108.237 364.97 107.89C370.421 107.543 375.889 107.543 381.34 107.89Z" fill="#E0E0E0"/>
<path d="M451 107.89C451 108.03 436.41 108.15 418.41 108.15C400.41 108.15 385.82 108.03 385.82 107.89C385.82 107.75 400.41 107.63 418.41 107.63C436.41 107.63 451 107.74 451 107.89Z" fill="#E0E0E0"/>
<path d="M428.75 126.91C428.75 127.05 414.16 127.17 396.16 127.17C378.16 127.17 363.57 127.05 363.57 126.91C363.57 126.77 378.16 126.65 396.16 126.65C414.16 126.65 428.75 126.76 428.75 126.91Z" fill="#E0E0E0"/>
<path d="M390.48 78.28C390.48 78.42 385.32 78.54 378.97 78.54C372.62 78.54 367.46 78.42 367.46 78.28C367.46 78.14 372.61 78 379 78C385.39 78 390.48 78.13 390.48 78.28Z" fill="#E0E0E0"/>
<path d="M389.89 95.3501C389.89 95.5001 384.74 95.6101 378.38 95.6101C372.02 95.6101 366.87 95.5001 366.87 95.3501C366.87 95.2001 372.02 95.0901 378.38 95.0901C384.74 95.0901 389.89 95.2101 389.89 95.3501Z" fill="#E0E0E0"/>
<path d="M409.35 119.76C409.35 119.9 404.2 120.02 397.84 120.02C391.48 120.02 386.33 119.9 386.33 119.76C386.33 119.62 391.48 119.5 397.84 119.5C404.2 119.5 409.35 119.62 409.35 119.76Z" fill="#E0E0E0"/>
<path d="M474.22 78.28C474.22 78.42 461.05 78.54 444.81 78.54C428.57 78.54 415.41 78.42 415.41 78.28C415.41 78.14 428.57 78.02 444.81 78.02C461.05 78.02 474.22 78.13 474.22 78.28Z" fill="#E0E0E0"/>
<path d="M456.07 96.3401C456.07 96.4901 442.9 96.6001 426.66 96.6001C410.42 96.6001 397.26 96.4901 397.26 96.3401C397.26 96.1901 410.42 96.0801 426.66 96.0801C442.9 96.0801 456.07 96.2001 456.07 96.3401Z" fill="#E0E0E0"/>
<path d="M476.3 119.76C476.3 119.9 463.14 120.02 446.9 120.02C430.66 120.02 417.5 119.9 417.5 119.76C417.5 119.62 430.66 119.5 446.9 119.5C463.14 119.5 476.3 119.62 476.3 119.76Z" fill="#E0E0E0"/>
<path d="M422.61 140.68C422.61 140.82 409.44 140.94 393.21 140.94C376.98 140.94 363.8 140.82 363.8 140.68C363.8 140.54 376.96 140.42 393.21 140.42C409.46 140.42 422.61 140.53 422.61 140.68Z" fill="#E0E0E0"/>
<path d="M487.64 140.68C487.64 140.82 474.48 140.94 458.24 140.94C442 140.94 428.83 140.82 428.83 140.68C428.83 140.54 442 140.42 458.24 140.42C474.48 140.42 487.64 140.53 487.64 140.68Z" fill="#E0E0E0"/>
<path d="M422.6 147.48C422.6 147.63 409.44 147.74 393.2 147.74C376.96 147.74 363.8 147.63 363.8 147.48C363.8 147.33 376.96 147.22 393.2 147.22C409.44 147.22 422.6 147.34 422.6 147.48Z" fill="#E0E0E0"/>
<path d="M425.47 83.18C425.47 83.32 412.3 83.44 396.06 83.44C379.82 83.44 366.66 83.32 366.66 83.18C366.66 83.04 379.82 82.92 396.06 82.92C412.3 82.92 425.47 83 425.47 83.18Z" fill="#E0E0E0"/>
<path d="M409.78 78.3401C404.739 78.6868 399.681 78.6868 394.64 78.3401C399.681 77.9934 404.739 77.9934 409.78 78.3401Z" fill="#E0E0E0"/>
<path d="M379.41 113.49C374.366 113.837 369.304 113.837 364.26 113.49C369.304 113.143 374.366 113.143 379.41 113.49Z" fill="#E0E0E0"/>
<path d="M379.05 119.76C374.009 120.107 368.951 120.107 363.91 119.76C368.951 119.413 374.009 119.413 379.05 119.76Z" fill="#E0E0E0"/>
<path d="M510.29 56.3401C510.29 56.4901 473.63 56.6001 428.43 56.6001C383.23 56.6001 346.57 56.4901 346.57 56.3401C346.57 56.1901 383.21 56.0801 428.43 56.0801C473.65 56.0801 510.29 56.2001 510.29 56.3401Z" fill="#E0E0E0"/>
<path d="M357.61 52.75C358.681 52.75 359.55 51.8814 359.55 50.81C359.55 49.7386 358.681 48.87 357.61 48.87C356.539 48.87 355.67 49.7386 355.67 50.81C355.67 51.8814 356.539 52.75 357.61 52.75Z" fill="white"/>
<path d="M365.94 52.75C367.011 52.75 367.88 51.8814 367.88 50.81C367.88 49.7386 367.011 48.87 365.94 48.87C364.869 48.87 364 49.7386 364 50.81C364 51.8814 364.869 52.75 365.94 52.75Z" fill="white"/>
<path d="M374.27 52.75C375.341 52.75 376.21 51.8814 376.21 50.81C376.21 49.7386 375.341 48.87 374.27 48.87C373.199 48.87 372.33 49.7386 372.33 50.81C372.33 51.8814 373.199 52.75 374.27 52.75Z" fill="white"/>
<path d="M156.82 84.36H55.31L62.81 12.05H165.18L156.82 84.36Z" fill="#EBEBEB"/>
<path d="M66.47 72.2201C66.33 72.2201 67.33 61.3301 68.71 47.9301C70.09 34.5301 71.33 23.6701 71.48 23.6801C71.63 23.6901 70.62 34.5801 69.23 47.9801C67.84 61.3801 66.61 72.2401 66.47 72.2201Z" fill="#E0E0E0"/>
<path d="M85 26.1001C81.6121 26.4468 78.1978 26.4468 74.81 26.1001C78.1978 25.7534 81.6121 25.7534 85 26.1001Z" fill="#E0E0E0"/>
<path d="M128.31 26.1001C128.31 26.2501 119.22 26.3601 108.01 26.3601C96.8 26.3601 87.71 26.2501 87.71 26.1001C87.71 25.9501 96.8 25.8401 108.01 25.8401C119.22 25.8401 128.31 26.0001 128.31 26.1001Z" fill="#E0E0E0"/>
<path d="M83.75 51.8C80.3621 52.1467 76.9478 52.1467 73.56 51.8C76.9478 51.4534 80.3621 51.4534 83.75 51.8Z" fill="#E0E0E0"/>
<path d="M127.11 51.8C127.11 51.94 118.02 52.06 106.81 52.06C95.6 52.06 86.51 51.94 86.51 51.8C86.51 51.66 95.6 51.54 106.81 51.54C118.02 51.54 127.11 51.66 127.11 51.8Z" fill="#E0E0E0"/>
<path d="M113.28 63.64C113.28 63.79 104.19 63.9 92.98 63.9C81.77 63.9 72.69 63.79 72.69 63.64C72.69 63.49 81.77 63.38 92.98 63.38C104.19 63.38 113.28 63.5 113.28 63.64Z" fill="#E0E0E0"/>
<path d="M89.44 33.36C87.0592 33.6173 84.6631 33.7042 82.27 33.62C79.8802 33.7044 77.4874 33.6175 75.11 33.36C77.4869 33.0965 79.8802 33.0096 82.27 33.1C84.6631 33.0098 87.0597 33.0967 89.44 33.36Z" fill="#E0E0E0"/>
<path d="M89.08 44.0001C86.6996 44.2633 84.3031 44.3502 81.91 44.2601C79.5168 44.3502 77.1203 44.2633 74.74 44.0001C77.1207 43.7428 79.5168 43.6559 81.91 43.7401C84.3031 43.6559 86.6992 43.7428 89.08 44.0001Z" fill="#E0E0E0"/>
<path d="M101.2 59.19C98.8197 59.4533 96.4231 59.5402 94.03 59.45C91.6368 59.5402 89.2403 59.4533 86.86 59.19C89.2407 58.9327 91.6368 58.8458 94.03 58.93C96.4231 58.8458 98.8192 58.9327 101.2 59.19Z" fill="#E0E0E0"/>
<path d="M141.6 33.3601C141.6 33.5001 133.4 33.6201 123.29 33.6201C113.18 33.6201 105 33.5001 105 33.3601C105 33.2201 113.2 33.1001 123.32 33.1001C133.44 33.1001 141.6 33.2101 141.6 33.3601Z" fill="#E0E0E0"/>
<path d="M130.29 44.6101C130.29 44.7501 122.09 44.8701 111.98 44.8701C101.87 44.8701 93.67 44.7501 93.67 44.6101C93.67 44.4701 101.87 44.3501 111.98 44.3501C122.09 44.3501 130.29 44.4701 130.29 44.6101Z" fill="#E0E0E0"/>
<path d="M142.9 59.1901C142.9 59.3401 134.7 59.4501 124.59 59.4501C114.48 59.4501 106.27 59.3401 106.27 59.1901C106.27 59.0401 114.47 58.9301 124.59 58.9301C134.71 58.9301 142.9 59.0501 142.9 59.1901Z" fill="#E0E0E0"/>
<path d="M109.46 72.2201C109.46 72.3701 101.26 72.4801 91.14 72.4801C81.02 72.4801 72.83 72.3701 72.83 72.2201C72.83 72.0701 81.03 71.9601 91.14 71.9601C101.25 71.9601 109.46 72.0801 109.46 72.2201Z" fill="#E0E0E0"/>
<path d="M150 72.2201C150 72.3701 141.8 72.4801 131.69 72.4801C121.58 72.4801 113.37 72.3701 113.37 72.2201C113.37 72.0701 121.57 71.9601 131.69 71.9601C141.81 71.9601 150 72.0801 150 72.2201Z" fill="#E0E0E0"/>
<path d="M109.45 76.4601C109.45 76.6101 101.25 76.7201 91.14 76.7201C81.03 76.7201 72.83 76.6101 72.83 76.4601C72.83 76.3101 81.02 76.2001 91.14 76.2001C101.26 76.2001 109.45 76.3201 109.45 76.4601Z" fill="#E0E0E0"/>
<path d="M111.23 36.41C111.23 36.56 103.03 36.67 92.92 36.67C82.81 36.67 74.61 36.56 74.61 36.41C74.61 36.26 82.81 36.15 92.92 36.15C103.03 36.15 111.23 36.27 111.23 36.41Z" fill="#E0E0E0"/>
<path d="M101.47 33.4001C98.3328 33.7465 95.1671 33.7465 92.03 33.4001C95.1671 33.0536 98.3328 33.0536 101.47 33.4001Z" fill="#E0E0E0"/>
<path d="M82.55 55.29C79.4162 55.6367 76.2537 55.6367 73.12 55.29C76.2537 54.9434 79.4162 54.9434 82.55 55.29Z" fill="#E0E0E0"/>
<path d="M82.33 59.19C79.1928 59.5365 76.0271 59.5365 72.89 59.19C76.0271 58.8436 79.1928 58.8436 82.33 59.19Z" fill="#E0E0E0"/>
<path d="M164.06 19.7001C164.06 19.8401 141.24 19.9601 113.06 19.9601C84.88 19.9601 62.06 19.8401 62.06 19.7001C62.06 19.5601 84.88 19.4401 113.06 19.4401C141.24 19.4401 164.06 19.5501 164.06 19.7001Z" fill="#E0E0E0"/>
<path d="M70.18 16.25C70.172 16.4887 70.0936 16.7197 69.9546 16.9139C69.8155 17.1081 69.6221 17.2569 69.3987 17.3414C69.1753 17.4259 68.9319 17.4424 68.6992 17.3888C68.4664 17.3352 68.2547 17.2139 68.0908 17.0402C67.9268 16.8666 67.8179 16.6482 67.7778 16.4128C67.7377 16.1773 67.7682 15.9353 67.8654 15.7171C67.9626 15.4989 68.1223 15.3144 68.3242 15.1868C68.526 15.0592 68.7612 14.9942 69 15C69.1598 15.0039 69.3172 15.0394 69.4632 15.1044C69.6092 15.1695 69.7408 15.2628 69.8505 15.379C69.9602 15.4952 70.0459 15.6321 70.1024 15.7815C70.1589 15.931 70.1853 16.0903 70.18 16.25Z" fill="white"/>
<path d="M75.37 16.25C75.3621 16.4875 75.2845 16.7173 75.1469 16.911C75.0093 17.1046 74.8177 17.2535 74.596 17.339C74.3743 17.4245 74.1324 17.4428 73.9003 17.3917C73.6683 17.3406 73.4565 17.2223 73.2912 17.0516C73.126 16.8809 73.0147 16.6653 72.9711 16.4317C72.9276 16.1982 72.9538 15.957 73.0464 15.7382C73.139 15.5194 73.294 15.3327 73.4921 15.2015C73.6901 15.0702 73.9224 15.0001 74.16 15C74.3223 14.9999 74.483 15.0325 74.6324 15.0958C74.7819 15.1591 74.9171 15.2518 75.03 15.3684C75.1429 15.4851 75.2312 15.6232 75.2896 15.7747C75.348 15.9261 75.3753 16.0878 75.37 16.25Z" fill="white"/>
<path d="M80.56 16.25C80.5521 16.4875 80.4745 16.7173 80.3369 16.911C80.1993 17.1046 80.0077 17.2535 79.786 17.339C79.5643 17.4245 79.3224 17.4428 79.0903 17.3917C78.8583 17.3406 78.6465 17.2223 78.4812 17.0516C78.316 16.8809 78.2047 16.6653 78.1611 16.4317C78.1176 16.1982 78.1438 15.957 78.2364 15.7382C78.3291 15.5194 78.4841 15.3327 78.6821 15.2015C78.8801 15.0702 79.1124 15.0001 79.35 15C79.5123 14.9999 79.673 15.0325 79.8225 15.0958C79.9719 15.1591 80.1071 15.2518 80.22 15.3684C80.3329 15.4851 80.4212 15.6232 80.4796 15.7747C80.538 15.9261 80.5653 16.0878 80.56 16.25Z" fill="white"/>
<path d="M432.7 210.55H381.58V376.01H432.7V210.55Z" fill="#EBEBEB"/>
<path d="M476.1 210.58H432.7V375.98H476.1V210.58Z" fill="#E0E0E0"/>
<path d="M426.58 217.25H385.57V252.89H426.58V217.25Z" fill="#E0E0E0"/>
<path d="M426.58 256.93H385.57V292.57H426.58V256.93Z" fill="#E0E0E0"/>
<path d="M426.58 296.61H385.57V332.25H426.58V296.61Z" fill="#E0E0E0"/>
<path d="M426.58 336.3H385.57V371.94H426.58V336.3Z" fill="#E0E0E0"/>
<path d="M406.08 223.83C406.082 224.113 406 224.391 405.844 224.627C405.688 224.864 405.465 225.049 405.204 225.158C404.943 225.268 404.655 225.298 404.377 225.244C404.099 225.19 403.843 225.054 403.642 224.855C403.441 224.655 403.304 224.4 403.248 224.123C403.192 223.845 403.22 223.557 403.328 223.295C403.436 223.033 403.619 222.809 403.854 222.652C404.09 222.494 404.367 222.41 404.65 222.41C405.028 222.41 405.39 222.559 405.658 222.825C405.926 223.091 406.077 223.452 406.08 223.83Z" fill="#FAFAFA"/>
<path d="M406.08 264C406.082 264.283 406 264.561 405.844 264.797C405.688 265.034 405.465 265.219 405.204 265.328C404.943 265.438 404.655 265.468 404.377 265.414C404.099 265.36 403.843 265.224 403.642 265.025C403.441 264.825 403.304 264.57 403.248 264.293C403.192 264.015 403.22 263.727 403.328 263.465C403.436 263.203 403.619 262.979 403.854 262.822C404.09 262.664 404.367 262.58 404.65 262.58C405.028 262.58 405.39 262.729 405.658 262.995C405.926 263.261 406.077 263.623 406.08 264Z" fill="#FAFAFA"/>
<path d="M406.08 304.12C406.08 304.403 405.996 304.679 405.839 304.915C405.682 305.15 405.459 305.333 405.197 305.441C404.936 305.549 404.648 305.578 404.371 305.523C404.094 305.467 403.839 305.331 403.639 305.131C403.439 304.931 403.303 304.676 403.247 304.399C403.192 304.122 403.221 303.834 403.329 303.573C403.437 303.312 403.62 303.088 403.856 302.931C404.091 302.774 404.367 302.69 404.65 302.69C405.029 302.69 405.393 302.841 405.661 303.109C405.929 303.377 406.08 303.741 406.08 304.12Z" fill="#FAFAFA"/>
<path d="M406.08 344.26C406.082 344.543 406 344.821 405.844 345.057C405.688 345.294 405.465 345.479 405.204 345.588C404.943 345.698 404.655 345.728 404.377 345.674C404.099 345.62 403.843 345.484 403.642 345.285C403.441 345.085 403.304 344.83 403.248 344.553C403.192 344.275 403.22 343.987 403.328 343.725C403.436 343.463 403.619 343.239 403.854 343.082C404.09 342.924 404.367 342.84 404.65 342.84C405.028 342.84 405.39 342.989 405.658 343.255C405.926 343.521 406.077 343.883 406.08 344.26Z" fill="#FAFAFA"/>
<path d="M387.49 376.01H381.58V409.2H387.49V376.01Z" fill="#E0E0E0"/>
<path d="M432.49 376.01H426.58V409.2H432.49V376.01Z" fill="#E0E0E0"/>
<path d="M475.46 376.01H469.55V409.2H475.46V376.01Z" fill="#E0E0E0"/>
<path d="M3.70999 326H-67.2L-54.42 401.81C-54.1608 403.387 -53.4595 404.859 -52.3974 406.054C-51.3354 407.249 -49.9562 408.118 -48.42 408.56L-48.17 408.63C-47.9628 408.694 -47.7526 408.747 -47.54 408.79C-47.0341 408.906 -46.5186 408.977 -46 409V409.07L-45.65 409.02H-14.05C-13.4655 409.017 -12.8828 408.956 -12.31 408.84C-10.468 408.561 -8.7686 407.685 -7.47314 406.346C-6.17769 405.008 -5.35795 403.28 -5.14001 401.43L0.999985 349.19L1.27998 347.11L3.70999 326.42V326ZM-9.67001 374.36H-16.94L-16.21 352.36H-7.78001L-9.67001 374.36ZM-7.07002 352.36H-0.0700226L-2.67001 374.36H-9.00002L-7.07002 352.36ZM-27.86 398.75L-28.3 379.64H-17.82L-18.46 398.75H-27.86ZM-39.19 379.64H-29L-28.55 398.75H-37.7L-39.19 379.64ZM-38.4 398.75H-46.94C-47.75 393.59 -48.81 386.88 -49.94 379.64H-39.88L-38.4 398.75ZM-39.6 374.36L-41.32 352.36H-29.64L-29.13 374.36H-39.6ZM-28.42 374.36L-28.93 352.36H-16.93L-17.67 374.36H-28.42ZM-29.06 347.08L-29.53 326.7H-16.06L-16.74 347.08H-29.06ZM-29.76 347.08H-41.76L-43.35 326.7H-30.26L-29.76 347.08ZM-42.44 347.08H-55.1C-55.55 344.27 -55.98 341.6 -56.36 339.21C-57.68 330.97 -58.18 327.87 -58.45 326.7H-44L-42.44 347.08ZM-42.02 352.36L-40.31 374.36H-50.78C-51.13 372.13 -51.49 369.87 -51.85 367.61C-52.67 362.42 -53.49 357.22 -54.26 352.36H-42.02ZM-51.49 374.36H-58.34L-62.04 352.36H-55L-51.49 374.36ZM-50.66 379.64C-49.66 386.25 -48.59 392.77 -47.66 398.75H-54.24L-57.46 379.64H-50.66ZM-17.76 398.75L-17.12 379.64H-10.12L-11.76 398.75H-17.76ZM-16 347.11L-15.32 326.73H-5.55002L-7.29001 347.11H-16ZM-59.09 326.73C-58.81 328.21 -57.52 336.23 -55.78 347.11H-62.9L-66.34 326.73H-59.09ZM-5.54001 398.73H-11L-9.36002 379.62H-3.27002L-5.54001 398.73ZM0.549988 347.06H-6.59001L-4.84001 326.68H2.94998L0.549988 347.06Z" fill="#E0E0E0"/>
<path d="M471 409.19C471 409.34 341.58 409.45 182 409.45C22.42 409.45 -107 409.34 -107 409.19C-107 409.04 22.39 408.93 182.05 408.93C341.71 408.93 471 409.05 471 409.19Z" fill="#263238"/>
<path d="M216.18 192.88H105.28L113.48 113.88H225.32L216.18 192.88Z" fill="#263238"/>
<path d="M210.54 192.88H99.63L107.83 113.88H219.67L210.54 192.88Z" fill="#455A64"/>
<path d="M206.42 189.3H103.51L111.12 116H214.9L206.42 189.3Z" fill="#F5F5F5"/>
<path d="M114.67 177.08C114.52 177.08 115.54 166.03 116.95 152.45C118.36 138.87 119.6 127.85 119.74 127.87C119.88 127.89 118.87 138.87 117.46 152.5C116.05 166.13 114.81 177.09 114.67 177.08Z" fill="#263238"/>
<path d="M133.4 130.32C129.965 130.667 126.505 130.667 123.07 130.32C126.505 129.973 129.965 129.973 133.4 130.32Z" fill="#263238"/>
<path d="M177.36 130.32C177.36 130.46 168.15 130.58 156.78 130.58C145.41 130.58 136.21 130.46 136.21 130.32C136.21 130.18 145.42 130.06 156.78 130.06C168.14 130.06 177.36 130.18 177.36 130.32Z" fill="#219DFF"/>
<path d="M132.19 156.37C128.752 156.717 125.288 156.717 121.85 156.37C125.288 156.023 128.752 156.023 132.19 156.37Z" fill="#263238"/>
<path d="M176.14 156.37C176.14 156.52 166.93 156.63 155.57 156.63C144.21 156.63 134.99 156.52 134.99 156.37C134.99 156.22 144.2 156.11 155.57 156.11C166.94 156.11 176.14 156.23 176.14 156.37Z" fill="#219DFF"/>
<path d="M162.12 168.38C162.12 168.52 152.91 168.64 141.55 168.64C130.19 168.64 120.97 168.52 120.97 168.38C120.97 168.24 130.18 168.12 141.55 168.12C152.92 168.12 162.12 168.24 162.12 168.38Z" fill="#219DFF"/>
<path d="M138 137.67C135.587 137.94 133.157 138.03 130.73 137.94C128.303 138.03 125.873 137.94 123.46 137.67C125.874 137.413 128.304 137.326 130.73 137.41C133.156 137.326 135.586 137.413 138 137.67Z" fill="#219DFF"/>
<path d="M137.59 148.46C135.176 148.717 132.746 148.804 130.32 148.72C127.894 148.804 125.464 148.717 123.05 148.46C125.464 148.197 127.894 148.11 130.32 148.2C132.746 148.11 135.176 148.197 137.59 148.46Z" fill="#219DFF"/>
<path d="M149.88 163.87C147.466 164.127 145.036 164.214 142.61 164.13C140.184 164.214 137.754 164.128 135.34 163.87C137.754 163.607 140.184 163.52 142.61 163.61C145.036 163.52 147.466 163.607 149.88 163.87Z" fill="#219DFF"/>
<path d="M190.83 137.67C190.83 137.82 182.52 137.94 172.27 137.94C162.02 137.94 153.7 137.82 153.7 137.67C153.7 137.52 162.01 137.41 172.27 137.41C182.53 137.41 190.83 137.53 190.83 137.67Z" fill="#263238"/>
<path d="M179.37 149.08C179.37 149.23 171.06 149.34 160.81 149.34C150.56 149.34 142.24 149.23 142.24 149.08C142.24 148.93 150.55 148.82 160.81 148.82C171.07 148.82 179.37 148.94 179.37 149.08Z" fill="#263238"/>
<path d="M192.15 163.87C192.15 164.01 183.84 164.13 173.59 164.13C163.34 164.13 155 164 155 163.87C155 163.74 163.31 163.61 173.57 163.61C183.83 163.61 192.15 163.72 192.15 163.87Z" fill="#263238"/>
<path d="M158.25 177.08C158.25 177.22 149.93 177.34 139.68 177.34C129.43 177.34 121.11 177.22 121.11 177.08C121.11 176.94 129.43 176.82 139.68 176.82C149.93 176.82 158.25 176.93 158.25 177.08Z" fill="#263238"/>
<path d="M199.31 177.08C199.31 177.22 191 177.34 180.75 177.34C170.5 177.34 162.18 177.22 162.18 177.08C162.18 176.94 170.49 176.82 180.75 176.82C191.01 176.82 199.31 176.93 199.31 177.08Z" fill="#263238"/>
<path d="M158.24 181.37C158.24 181.52 149.93 181.63 139.68 181.63C129.43 181.63 121.11 181.52 121.11 181.37C121.11 181.22 129.42 181.11 139.68 181.11C149.94 181.11 158.24 181.23 158.24 181.37Z" fill="#263238"/>
<path d="M160.05 140.77C160.05 140.91 151.74 141.03 141.49 141.03C131.24 141.03 122.92 140.91 122.92 140.77C122.92 140.63 131.23 140.51 141.49 140.51C151.75 140.51 160.05 140.63 160.05 140.77Z" fill="#263238"/>
<path d="M150.15 137.72C146.969 138.067 143.761 138.067 140.58 137.72C143.76 137.36 146.97 137.36 150.15 137.72Z" fill="#455A64"/>
<path d="M131 159.91C127.823 160.257 124.617 160.257 121.44 159.91C124.617 159.563 127.823 159.563 131 159.91Z" fill="#455A64"/>
<path d="M130.74 163.87C127.563 164.217 124.357 164.217 121.18 163.87C124.357 163.523 127.563 163.523 130.74 163.87Z" fill="#455A64"/>
<path d="M213.61 123.83C213.61 123.97 190.47 124.09 161.92 124.09C133.37 124.09 110.23 123.97 110.23 123.83C110.23 123.69 133.37 123.56 161.92 123.56C190.47 123.56 213.61 123.68 213.61 123.83Z" fill="#263238"/>
<path d="M118.43 120.33C118.43 120.574 118.358 120.812 118.222 121.014C118.086 121.217 117.894 121.375 117.668 121.467C117.443 121.56 117.195 121.584 116.956 121.536C116.717 121.487 116.498 121.369 116.327 121.196C116.155 121.023 116.039 120.803 115.992 120.564C115.946 120.325 115.972 120.077 116.067 119.852C116.161 119.628 116.32 119.436 116.524 119.302C116.728 119.168 116.966 119.098 117.21 119.1C117.371 119.1 117.531 119.132 117.679 119.194C117.828 119.256 117.963 119.347 118.076 119.461C118.19 119.575 118.279 119.711 118.34 119.86C118.401 120.009 118.431 120.169 118.43 120.33Z" fill="white"/>
<path d="M123.69 120.33C123.69 120.574 123.618 120.812 123.482 121.014C123.346 121.217 123.154 121.375 122.928 121.467C122.703 121.56 122.455 121.584 122.216 121.536C121.977 121.487 121.758 121.369 121.587 121.196C121.415 121.023 121.299 120.803 121.252 120.564C121.206 120.325 121.232 120.077 121.327 119.852C121.421 119.628 121.58 119.436 121.784 119.302C121.988 119.168 122.226 119.098 122.47 119.1C122.631 119.1 122.791 119.132 122.939 119.194C123.088 119.256 123.223 119.347 123.336 119.461C123.45 119.575 123.539 119.711 123.6 119.86C123.661 120.009 123.691 120.169 123.69 120.33Z" fill="white"/>
<path d="M129 120.33C129 120.574 128.928 120.812 128.792 121.014C128.656 121.217 128.464 121.375 128.238 121.467C128.013 121.56 127.765 121.584 127.526 121.536C127.287 121.487 127.068 121.369 126.897 121.196C126.725 121.023 126.609 120.803 126.562 120.564C126.516 120.325 126.542 120.077 126.637 119.852C126.731 119.628 126.89 119.436 127.094 119.302C127.298 119.168 127.536 119.098 127.78 119.1C127.941 119.1 128.101 119.132 128.249 119.194C128.398 119.256 128.533 119.347 128.646 119.461C128.76 119.575 128.849 119.711 128.91 119.86C128.971 120.009 129.001 120.169 129 120.33Z" fill="white"/>
<path d="M361.87 195.28H245.21L253.83 112.17H371.49L361.87 195.28Z" fill="#263238"/>
<path d="M355.93 195.28H239.27L247.9 112.17H365.55L355.93 195.28Z" fill="#455A64"/>
<path d="M351.61 191.51H243.36L251.36 114.4H360.53L351.61 191.51Z" fill="#EBEBEB"/>
<path d="M255.15 177.49C255.01 177.49 256.09 165.87 257.56 151.58C259.03 137.29 260.35 125.71 260.49 125.73C260.63 125.75 259.55 137.34 258.08 151.64C256.61 165.94 255.29 177.5 255.15 177.49Z" fill="#263238"/>
<path d="M274.86 128.31C271.245 128.657 267.605 128.657 263.99 128.31C267.604 127.95 271.246 127.95 274.86 128.31Z" fill="#263238"/>
<path d="M321.1 128.31C321.1 128.45 311.41 128.57 299.45 128.57C287.49 128.57 277.81 128.45 277.81 128.31C277.81 128.17 287.5 128.04 299.45 128.04C311.4 128.04 321.1 128.16 321.1 128.31Z" fill="#219DFF"/>
<path d="M273.58 155.71C269.965 156.057 266.325 156.057 262.71 155.71C266.325 155.363 269.965 155.363 273.58 155.71Z" fill="#263238"/>
<path d="M319.82 155.71C319.82 155.85 310.12 155.97 298.17 155.97C286.22 155.97 276.53 155.85 276.53 155.71C276.53 155.57 286.22 155.45 298.17 155.45C310.12 155.45 319.82 155.57 319.82 155.71Z" fill="#219DFF"/>
<path d="M305.07 168.34C305.07 168.49 295.38 168.6 283.43 168.6C271.48 168.6 261.78 168.49 261.78 168.34C261.78 168.19 271.47 168.08 283.43 168.08C295.39 168.08 305.07 168.2 305.07 168.34Z" fill="#219DFF"/>
<path d="M279.65 136C274.559 136.347 269.451 136.347 264.36 136C269.451 135.653 274.559 135.653 279.65 136Z" fill="#219DFF"/>
<path d="M279.26 147.38C274.17 147.74 269.06 147.74 263.97 147.38C269.061 147.033 274.169 147.033 279.26 147.38Z" fill="#219DFF"/>
<path d="M292.19 163.6C287.099 163.947 281.991 163.947 276.9 163.6C281.991 163.253 287.099 163.253 292.19 163.6Z" fill="#219DFF"/>
<path d="M335.27 136C335.27 136.15 326.53 136.26 315.74 136.26C304.95 136.26 296.21 136.15 296.21 136C296.21 135.85 304.95 135.74 315.74 135.74C326.53 135.74 335.27 135.9 335.27 136Z" fill="#263238"/>
<path d="M323.22 148C323.22 148.15 314.47 148.26 303.69 148.26C292.91 148.26 284.16 148.15 284.16 148C284.16 147.85 292.9 147.74 303.69 147.74C314.48 147.74 323.22 147.9 323.22 148Z" fill="#263238"/>
<path d="M336.66 163.6C336.66 163.74 327.91 163.86 317.13 163.86C306.35 163.86 297.6 163.74 297.6 163.6C297.6 163.46 306.34 163.34 317.13 163.34C327.92 163.34 336.66 163.45 336.66 163.6Z" fill="#263238"/>
<path d="M301 177.49C301 177.63 292.26 177.75 281.47 177.75C270.68 177.75 261.94 177.63 261.94 177.49C261.94 177.35 270.69 177.23 281.47 177.23C292.25 177.23 301 177.35 301 177.49Z" fill="#263238"/>
<path d="M344.19 177.49C344.19 177.63 335.44 177.75 324.66 177.75C313.88 177.75 305.13 177.63 305.13 177.49C305.13 177.35 313.87 177.23 324.66 177.23C335.45 177.23 344.19 177.35 344.19 177.49Z" fill="#263238"/>
<path d="M301 182C301 182.14 292.26 182.26 281.47 182.26C270.68 182.26 261.94 182.14 261.94 182C261.94 181.86 270.68 181.74 281.47 181.74C292.26 181.74 301 181.87 301 182Z" fill="#263238"/>
<path d="M302.89 139.3C302.89 139.44 294.15 139.56 283.36 139.56C272.57 139.56 263.83 139.44 263.83 139.3C263.83 139.16 272.57 139.04 283.36 139.04C294.15 139.04 302.89 139.16 302.89 139.3Z" fill="#263238"/>
<path d="M292.47 136.08C289.126 136.427 285.754 136.427 282.41 136.08C285.754 135.733 289.126 135.733 292.47 136.08Z" fill="#455A64"/>
<path d="M272.3 159.43C268.956 159.777 265.584 159.777 262.24 159.43C265.584 159.083 268.956 159.083 272.3 159.43Z" fill="#455A64"/>
<path d="M272.06 163.6C268.716 163.947 265.344 163.947 262 163.6C265.344 163.253 268.716 163.253 272.06 163.6Z" fill="#455A64"/>
<path d="M359.23 121.47C359.23 121.62 334.89 121.73 304.86 121.73C274.83 121.73 250.49 121.62 250.49 121.47C250.49 121.32 274.83 121.21 304.86 121.21C334.89 121.21 359.23 121.33 359.23 121.47Z" fill="#263238"/>
<path d="M259.11 117.8C259.11 118.055 259.034 118.305 258.893 118.517C258.751 118.729 258.549 118.894 258.314 118.992C258.078 119.089 257.819 119.115 257.568 119.065C257.318 119.015 257.088 118.893 256.908 118.712C256.727 118.532 256.605 118.302 256.555 118.052C256.505 117.801 256.531 117.542 256.628 117.306C256.726 117.071 256.891 116.869 257.103 116.727C257.315 116.586 257.565 116.51 257.82 116.51C257.99 116.509 258.158 116.541 258.315 116.606C258.472 116.67 258.615 116.765 258.735 116.885C258.855 117.005 258.95 117.148 259.015 117.305C259.079 117.462 259.111 117.63 259.11 117.8Z" fill="white"/>
<path d="M264.64 117.8C264.64 118.055 264.564 118.305 264.423 118.517C264.281 118.729 264.079 118.894 263.844 118.992C263.608 119.089 263.349 119.115 263.098 119.065C262.848 119.015 262.618 118.893 262.438 118.712C262.257 118.532 262.135 118.302 262.085 118.052C262.035 117.801 262.061 117.542 262.158 117.306C262.256 117.071 262.421 116.869 262.633 116.727C262.845 116.586 263.095 116.51 263.35 116.51C263.52 116.509 263.688 116.541 263.845 116.606C264.002 116.67 264.145 116.765 264.265 116.885C264.385 117.005 264.48 117.148 264.545 117.305C264.609 117.462 264.641 117.63 264.64 117.8Z" fill="white"/>
<path d="M270.18 117.8C270.18 118.055 270.104 118.305 269.963 118.517C269.821 118.729 269.619 118.894 269.384 118.992C269.148 119.089 268.889 119.115 268.638 119.065C268.388 119.015 268.158 118.893 267.978 118.712C267.797 118.532 267.675 118.302 267.625 118.052C267.575 117.801 267.601 117.542 267.698 117.306C267.796 117.071 267.961 116.869 268.173 116.727C268.385 116.586 268.635 116.51 268.89 116.51C269.06 116.509 269.228 116.541 269.385 116.606C269.542 116.67 269.685 116.765 269.805 116.885C269.925 117.005 270.02 117.148 270.085 117.305C270.149 117.462 270.181 117.63 270.18 117.8Z" fill="white"/>
<path d="M295.31 96.9H183.9L192.14 17.54H304.49L295.31 96.9Z" fill="#263238"/>
<path d="M289.64 96.9H178.23L186.47 17.54H298.82L289.64 96.9Z" fill="#455A64"/>
<path d="M285.5 93.31H182.13L189.77 19.67H294.02L285.5 93.31Z" fill="#FAFAFA"/>
<path d="M193.49 81.0001C193.35 81.0001 194.38 69.9001 195.79 56.2601C197.2 42.6201 198.45 31.5501 198.6 31.5701C198.75 31.5901 197.71 42.6601 196.3 56.3101C194.89 69.9601 193.64 81.0001 193.49 81.0001Z" fill="#263238"/>
<path d="M212.32 34C208.869 34.3467 205.391 34.3467 201.94 34C205.391 33.6533 208.869 33.6533 212.32 34Z" fill="#263238"/>
<path d="M256.47 34C256.47 34.14 247.22 34.26 235.8 34.26C224.38 34.26 215.13 34.14 215.13 34C215.13 33.86 224.38 33.74 235.8 33.74C247.22 33.74 256.47 33.83 256.47 34Z" fill="#219DFF"/>
<path d="M211.09 60.15C207.639 60.4967 204.161 60.4967 200.71 60.15C204.161 59.8033 207.639 59.8033 211.09 60.15Z" fill="#263238"/>
<path d="M255.25 60.15C255.25 60.29 245.99 60.41 234.58 60.41C223.17 60.41 213.91 60.29 213.91 60.15C213.91 60.01 223.16 59.89 234.58 59.89C246 59.89 255.25 60 255.25 60.15Z" fill="#219DFF"/>
<path d="M241.17 72.2101C241.17 72.3501 231.91 72.4701 220.5 72.4701C209.09 72.4701 199.83 72.3501 199.83 72.2101C199.83 72.0701 209.08 71.9501 220.5 71.9501C231.92 71.9501 241.17 72.0701 241.17 72.2101Z" fill="#219DFF"/>
<path d="M216.89 41.37C212.03 41.7167 207.151 41.7167 202.29 41.37C207.151 41.0233 212.03 41.0233 216.89 41.37Z" fill="#219DFF"/>
<path d="M216.52 52.2001C211.659 52.5467 206.781 52.5467 201.92 52.2001C206.781 51.8534 211.659 51.8534 216.52 52.2001Z" fill="#219DFF"/>
<path d="M228.86 67.68C223.999 68.0267 219.121 68.0267 214.26 67.68C219.121 67.3334 223.999 67.3334 228.86 67.68Z" fill="#219DFF"/>
<path d="M270 41.37C270 41.51 261.65 41.63 251.35 41.63C241.05 41.63 232.7 41.51 232.7 41.37C232.7 41.23 241.04 41.11 251.35 41.11C261.66 41.11 270 41.22 270 41.37Z" fill="#263238"/>
<path d="M258.49 52.8301C258.49 52.9701 250.14 53.0901 239.84 53.0901C229.54 53.0901 221.19 52.9701 221.19 52.8301C221.19 52.6901 229.54 52.5701 239.84 52.5701C250.14 52.5701 258.49 52.6801 258.49 52.8301Z" fill="#263238"/>
<path d="M271.33 67.68C271.33 67.82 262.98 67.94 252.68 67.94C242.38 67.94 234.03 67.82 234.03 67.68C234.03 67.54 242.38 67.42 252.68 67.42C262.98 67.42 271.33 67.53 271.33 67.68Z" fill="#263238"/>
<path d="M237.27 81C237.27 81.14 228.92 81.26 218.62 81.26C208.32 81.26 200 81.09 200 81C200 80.91 208.35 80.74 218.65 80.74C228.95 80.74 237.27 80.8 237.27 81Z" fill="#263238"/>
<path d="M278.52 81C278.52 81.14 270.17 81.26 259.87 81.26C249.57 81.26 241.22 81.14 241.22 81C241.22 80.86 249.57 80.74 259.87 80.74C270.17 80.74 278.52 80.8 278.52 81Z" fill="#263238"/>
<path d="M237.27 85.26C237.27 85.41 228.92 85.52 218.62 85.52C208.32 85.52 199.97 85.41 199.97 85.26C199.97 85.11 208.32 85 218.62 85C228.92 85 237.27 85.12 237.27 85.26Z" fill="#263238"/>
<path d="M239.08 44.4801C239.08 44.6201 230.73 44.7401 220.43 44.7401C210.13 44.7401 201.78 44.6201 201.78 44.4801C201.78 44.3401 210.13 44.2201 220.43 44.2201C230.73 44.2201 239.08 44.3301 239.08 44.4801Z" fill="#263238"/>
<path d="M229.14 41.41C225.946 41.7567 222.724 41.7567 219.53 41.41C222.724 41.0634 225.946 41.0634 229.14 41.41Z" fill="#455A64"/>
<path d="M209.87 63.7001C206.676 64.0467 203.454 64.0467 200.26 63.7001C203.454 63.3534 206.676 63.3534 209.87 63.7001Z" fill="#455A64"/>
<path d="M209.65 67.68C206.456 68.0267 203.234 68.0267 200.04 67.68C203.234 67.3334 206.456 67.3334 209.65 67.68Z" fill="#455A64"/>
<path d="M292.88 27.4501C292.88 27.6001 269.64 27.7201 240.97 27.7201C212.3 27.7201 189 27.6001 189 27.4501C189 27.3001 212.24 27.1901 240.93 27.1901C269.62 27.1901 292.88 27.3101 292.88 27.4501Z" fill="#263238"/>
<path d="M196.05 25.1701C196.729 25.1701 197.28 24.6194 197.28 23.9401C197.28 23.2608 196.729 22.7101 196.05 22.7101C195.371 22.7101 194.82 23.2608 194.82 23.9401C194.82 24.6194 195.371 25.1701 196.05 25.1701Z" fill="white"/>
<path d="M201.33 25.1701C202.009 25.1701 202.56 24.6194 202.56 23.9401C202.56 23.2608 202.009 22.7101 201.33 22.7101C200.651 22.7101 200.1 23.2608 200.1 23.9401C200.1 24.6194 200.651 25.1701 201.33 25.1701Z" fill="white"/>
<path d="M206.61 25.1701C207.289 25.1701 207.84 24.6194 207.84 23.9401C207.84 23.2608 207.289 22.7101 206.61 22.7101C205.931 22.7101 205.38 23.2608 205.38 23.9401C205.38 24.6194 205.931 25.1701 206.61 25.1701Z" fill="white"/>
<path d="M106.58 396.69H97.9V408.53H106.58V396.69Z" fill="#263238"/>
<path d="M153.11 258.53H230.12V254.78H153.11V258.53Z" fill="#263238"/>
<path d="M242.05 258.53L256.5 204.4H196.36L183.28 258.53H242.05Z" fill="#263238"/>
<path d="M186.89 254.44H240.61L253.11 206.9H199.11L186.89 254.44Z" fill="#F5F5F5"/>
<path d="M200.45 216.11L197.12 229.57H232.74L236.54 216.11H200.45Z" fill="#E0E0E0"/>
<path d="M229 214.33C229 214.48 222.76 214.59 215.05 214.59C207.34 214.59 201.1 214.48 201.1 214.33C201.1 214.18 207.34 214.07 215.05 214.07C222.76 214.07 229 214.19 229 214.33Z" fill="#455A64"/>
<path d="M212.79 218.68C209.048 219.026 205.282 219.026 201.54 218.68C205.282 218.333 209.048 218.333 212.79 218.68Z" fill="#263238"/>
<path d="M221.81 218.47C219.382 218.817 216.918 218.817 214.49 218.47C216.918 218.123 219.382 218.123 221.81 218.47Z" fill="#263238"/>
<path d="M232 221.12C232 221.27 225.11 221.39 216.61 221.39C208.11 221.39 201.22 221.27 201.22 221.12C201.22 220.97 208.11 220.86 216.61 220.86C225.11 220.86 232 221 232 221.12Z" fill="#455A64"/>
<path d="M210.56 223.35C207.236 223.699 203.884 223.699 200.56 223.35C203.884 223.001 207.236 223.001 210.56 223.35Z" fill="#219DFF"/>
<path d="M229.24 226.54C229.24 226.68 222.85 226.8 214.97 226.8C207.09 226.8 200.69 226.68 200.69 226.54C200.69 226.4 207.08 226.28 214.97 226.28C222.86 226.28 229.24 226.39 229.24 226.54Z" fill="#455A64"/>
<path d="M208.23 233.43C204.571 233.774 200.889 233.774 197.23 233.43C200.889 233.086 204.571 233.086 208.23 233.43Z" fill="#455A64"/>
<path d="M217.67 233.48C216.429 233.722 215.161 233.799 213.9 233.71C212.639 233.787 211.373 233.686 210.14 233.41C211.381 233.168 212.649 233.091 213.91 233.18C215.171 233.103 216.437 233.204 217.67 233.48Z" fill="#263238"/>
<path d="M223 233.22C223 233.37 222.28 233.48 221.4 233.48C220.52 233.48 219.81 233.37 219.81 233.22C219.81 233.07 220.53 232.96 221.4 232.96C222.27 232.96 223 233.08 223 233.22Z" fill="#263238"/>
<path d="M200.91 236.19C200.91 236.34 200.12 236.45 199.15 236.45C198.18 236.45 197.4 236.34 197.4 236.19C197.4 236.04 198.19 235.93 199.15 235.93C200.11 235.93 200.91 236.05 200.91 236.19Z" fill="#219DFF"/>
<path d="M211.41 236.19C208.627 236.537 205.813 236.537 203.03 236.19C205.813 235.843 208.627 235.843 211.41 236.19Z" fill="#263238"/>
<path d="M236.45 235.87C236.45 236.02 231.45 236.13 225.26 236.13C219.07 236.13 214.06 236.02 214.06 235.87C214.06 235.72 219.06 235.61 225.26 235.61C231.46 235.61 236.45 235.73 236.45 235.87Z" fill="#455A64"/>
<path d="M200.37 239.06C200.37 239.2 199.57 239.32 198.57 239.32C197.57 239.32 196.77 239.2 196.77 239.06C196.77 238.92 197.57 238.8 198.57 238.8C199.57 238.8 200.37 238.91 200.37 239.06Z" fill="#263238"/>
<path d="M205.89 239C205.198 239.258 204.454 239.347 203.72 239.26C202.983 239.346 202.236 239.257 201.54 239C202.237 238.749 202.983 238.66 203.72 238.74C204.454 238.659 205.196 238.748 205.89 239Z" fill="#263238"/>
<path d="M222.34 238.74C217.643 239.087 212.927 239.087 208.23 238.74C212.927 238.393 217.643 238.393 222.34 238.74Z" fill="#455A64"/>
<path d="M213.64 243.73C210.801 243.987 207.949 244.074 205.1 243.99C202.251 244.074 199.399 243.988 196.56 243.73C199.399 243.466 202.251 243.38 205.1 243.47C207.949 243.38 210.801 243.467 213.64 243.73Z" fill="#455A64"/>
<path d="M223.61 243.51C221.042 243.857 218.438 243.857 215.87 243.51C218.438 243.163 221.042 243.163 223.61 243.51Z" fill="#219DFF"/>
<path d="M238.42 243.51C234.147 243.857 229.853 243.857 225.58 243.51C229.853 243.163 234.147 243.163 238.42 243.51Z" fill="#263238"/>
<path d="M235 214.12C235 214.27 234.4 214.38 233.67 214.38C232.94 214.38 232.34 214.27 232.34 214.12C232.34 213.97 232.94 213.86 233.67 213.86C234.4 213.86 235 214 235 214.12Z" fill="#263238"/>
<path d="M207.91 212.32C205.979 212.667 204.001 212.667 202.07 212.32C204.001 211.973 205.979 211.973 207.91 212.32Z" fill="#219DFF"/>
<path d="M252.21 210.32H198.21L199.12 206.9H253.12L252.21 210.32Z" fill="#EBEBEB"/>
<path d="M201.39 209.22C201.716 209.22 201.98 208.956 201.98 208.63C201.98 208.304 201.716 208.04 201.39 208.04C201.064 208.04 200.8 208.304 200.8 208.63C200.8 208.956 201.064 209.22 201.39 209.22Z" fill="#FAFAFA"/>
<path d="M203.42 209.22C203.746 209.22 204.01 208.956 204.01 208.63C204.01 208.304 203.746 208.04 203.42 208.04C203.094 208.04 202.83 208.304 202.83 208.63C202.83 208.956 203.094 209.22 203.42 209.22Z" fill="#FAFAFA"/>
<path d="M205.45 209.22C205.776 209.22 206.04 208.956 206.04 208.63C206.04 208.304 205.776 208.04 205.45 208.04C205.124 208.04 204.86 208.304 204.86 208.63C204.86 208.956 205.124 209.22 205.45 209.22Z" fill="#FAFAFA"/>
<path d="M318.02 263.57H189.98V338.28H318.02V263.57Z" fill="#263238"/>
<path d="M248.31 263.57H189.98V338.28H248.31V263.57Z" fill="#455A64"/>
<path d="M242.37 288.94C242.355 288.814 242.355 288.686 242.37 288.56V287.47C242.37 286.47 242.37 285.1 242.32 283.32C242.32 279.71 242.26 274.55 242.22 268.19L242.41 268.38L195.49 268.45L195.75 268.19V273.58C195.75 275.36 195.75 277.13 195.75 278.86C195.75 282.33 195.75 285.7 195.75 288.92L195.51 288.68L229.12 288.79L238.88 288.86H241.5H242.19H242.43H242.22H241.56H238.99L229.28 288.92L195.51 289.04H195.26V288.79C195.26 285.57 195.26 282.2 195.26 278.73V268.21L195.52 267.95L242.44 268.02H242.63V268.21C242.58 274.62 242.55 279.82 242.52 283.45C242.52 285.21 242.52 286.59 242.52 287.56V288.62C242.38 288.83 242.37 289 242.37 288.94Z" fill="#263238"/>
<path d="M220.9 278.57C220.77 278.003 220.453 277.496 220 277.13C219.757 276.96 219.476 276.852 219.181 276.815C218.887 276.778 218.587 276.814 218.31 276.92C217.976 277.049 217.689 277.275 217.486 277.569C217.282 277.863 217.172 278.212 217.17 278.57C217.175 278.927 217.286 279.275 217.489 279.568C217.692 279.862 217.978 280.089 218.31 280.22C218.589 280.321 218.888 280.354 219.182 280.316C219.476 280.278 219.757 280.169 220 280C220.449 279.631 220.765 279.125 220.9 278.56C220.9 278.56 220.99 278.74 220.9 279.07C220.819 279.549 220.567 279.983 220.19 280.29C219.904 280.524 219.562 280.68 219.198 280.745C218.834 280.81 218.459 280.781 218.11 280.66C217.672 280.51 217.292 280.227 217.023 279.85C216.755 279.474 216.61 279.023 216.61 278.56C216.61 278.097 216.755 277.646 217.023 277.27C217.292 276.893 217.672 276.61 218.11 276.46C218.459 276.338 218.833 276.307 219.197 276.37C219.561 276.433 219.903 276.588 220.19 276.82C220.567 277.127 220.819 277.56 220.9 278.04C221 278.39 220.93 278.57 220.9 278.57Z" fill="#263238"/>
<path d="M242.37 311.79C242.356 311.66 242.356 311.53 242.37 311.4V310.31C242.37 309.31 242.37 307.94 242.32 306.16C242.32 302.56 242.26 297.4 242.22 291.03L242.41 291.22L195.49 291.3L195.75 291.04V296.43C195.75 298.22 195.75 299.98 195.75 301.72C195.75 305.19 195.75 308.56 195.75 311.78L195.51 311.53L229.12 311.65L238.88 311.72H241.5H242.19H242.43H242.22H241.56H238.99L229.28 311.79L195.51 311.91H195.26V311.66C195.26 308.44 195.26 305.07 195.26 301.6V291.05C195.2 291.05 195.75 290.55 195.52 290.78L242.44 290.86H242.63V291C242.58 297.42 242.55 302.62 242.52 306.25C242.52 308.01 242.52 309.38 242.52 310.36V311.41C242.38 311.68 242.37 311.8 242.37 311.79Z" fill="#263238"/>
<path d="M220.9 301.41C220.759 300.855 220.444 300.361 220 300C219.734 299.81 219.42 299.696 219.093 299.672C218.767 299.647 218.44 299.713 218.148 299.861C217.856 300.01 217.611 300.236 217.438 300.514C217.266 300.792 217.173 301.113 217.17 301.44C217.172 301.798 217.282 302.146 217.486 302.441C217.689 302.735 217.976 302.961 218.31 303.09C218.587 303.195 218.887 303.231 219.181 303.195C219.476 303.158 219.757 303.05 220 302.88C220.451 302.513 220.767 302.006 220.9 301.44C220.9 301.44 220.99 301.62 220.9 301.95C220.819 302.429 220.567 302.863 220.19 303.17C219.904 303.404 219.562 303.56 219.198 303.625C218.834 303.69 218.459 303.661 218.11 303.54C217.672 303.39 217.292 303.107 217.023 302.73C216.755 302.354 216.61 301.903 216.61 301.44C216.61 300.977 216.755 300.526 217.023 300.15C217.292 299.773 217.672 299.49 218.11 299.34C218.459 299.219 218.834 299.19 219.198 299.255C219.562 299.319 219.904 299.476 220.19 299.71C220.567 300.017 220.819 300.45 220.9 300.93C221 301.23 220.93 301.41 220.9 301.41Z" fill="#263238"/>
<path d="M242.37 334.63C242.355 334.504 242.355 334.376 242.37 334.25V333.16C242.37 332.16 242.37 330.79 242.32 329.01C242.32 325.4 242.26 320.24 242.22 313.88L242.41 314.07L195.49 314.14L195.75 313.88V319.27C195.75 321.05 195.75 322.82 195.75 324.55C195.75 328.02 195.75 331.39 195.75 334.61L195.51 334.37L229.12 334.48L238.88 334.55H241.5H242.19H242.43H242.22H241.56H238.99L229.28 334.61L195.51 334.73H195.26V334.48C195.26 331.26 195.26 327.89 195.26 324.42V313.9L195.52 313.64L242.44 313.71H242.63V313.9C242.58 320.31 242.55 325.51 242.52 329.14C242.52 330.9 242.52 332.28 242.52 333.25V334.31C242.38 334.52 242.37 334.64 242.37 334.63Z" fill="#263238"/>
<path d="M220.9 324.26C220.77 323.693 220.453 323.186 220 322.82C219.757 322.65 219.476 322.542 219.181 322.505C218.887 322.468 218.587 322.504 218.31 322.61C217.976 322.739 217.689 322.965 217.486 323.259C217.282 323.553 217.172 323.902 217.17 324.26C217.173 324.587 217.266 324.908 217.438 325.186C217.611 325.464 217.856 325.69 218.148 325.838C218.44 325.987 218.767 326.053 219.093 326.028C219.42 326.004 219.734 325.89 220 325.7C220.449 325.331 220.765 324.825 220.9 324.26C220.9 324.26 220.99 324.44 220.9 324.77C220.819 325.249 220.567 325.683 220.19 325.99C219.904 326.224 219.562 326.38 219.198 326.445C218.834 326.51 218.459 326.481 218.11 326.36C217.672 326.21 217.292 325.927 217.023 325.55C216.755 325.174 216.61 324.723 216.61 324.26C216.61 323.797 216.755 323.346 217.023 322.97C217.292 322.593 217.672 322.31 218.11 322.16C218.459 322.038 218.833 322.007 219.197 322.07C219.561 322.133 219.903 322.288 220.19 322.52C220.567 322.827 220.819 323.261 220.9 323.74C221 324.08 220.93 324.26 220.9 324.26Z" fill="#263238"/>
<path d="M104.71 399.09L19.14 399.02V263.57H104.71V399.09Z" fill="#263238"/>
<path d="M322.67 258.36H15.01V265.46H322.67V258.36Z" fill="#263238"/>
<path d="M28.68 265.46H19.14V409.16H28.68V265.46Z" fill="#263238"/>
<path d="M318.02 265.46H308.48V409.2H318.02V265.46Z" fill="#263238"/>
<path d="M257.85 265.46H248.31V409.2H257.85V265.46Z" fill="#263238"/>
<path d="M58.27 258.36C58.27 258.5 49.1 258.62 37.79 258.62C26.48 258.62 17.31 258.5 17.31 258.36C17.31 258.22 26.48 258.1 37.79 258.1C49.1 258.1 58.27 258.21 58.27 258.36Z" fill="#455A64"/>
<path d="M148.23 402.16L148.47 391.89L129.22 391.31L128.71 406.31L129.9 406.42C135.2 406.88 156.9 408.36 160.47 407.42C164.47 406.34 148.23 402.16 148.23 402.16Z" fill="#219DFF"/>
<g opacity="0.4">
<path d="M156.15 404.49C156.15 404.49 161.84 406.31 161.09 407.24C160.34 408.17 138.37 407.48 128.71 406.34V405.91L154.34 406.91C154.34 406.91 155 404.5 156.15 404.49Z" fill="white"/>
</g>
<path d="M128.45 405.89H128.78L129.78 405.98L133.27 406.24C136.22 406.44 140.27 406.65 144.81 406.8C149.35 406.95 153.41 406.98 156.37 406.97C153.42 406.97 149.37 406.87 144.82 406.73C140.27 406.59 136.23 406.4 133.28 406.24L129.78 406.06H128.78L128.45 405.89Z" fill="#263238"/>
<path d="M154.36 407.21C154.531 406.634 154.769 406.08 155.07 405.56C155.432 405.084 155.844 404.648 156.3 404.26C155.717 404.498 155.219 404.908 154.873 405.434C154.526 405.961 154.348 406.58 154.36 407.21Z" fill="#263238"/>
<path d="M148.77 404.16C148.82 404.16 149.11 403.87 149.4 403.44C149.69 403.01 149.89 402.62 149.84 402.59C149.79 402.56 149.5 402.87 149.21 403.31C148.92 403.75 148.72 404.12 148.77 404.16Z" fill="#263238"/>
<path d="M147.24 403.29C147.24 403.29 147.59 403.14 147.93 402.85C148.27 402.56 148.51 402.29 148.47 402.24C148.43 402.19 148.12 402.39 147.78 402.68C147.44 402.97 147.2 403.24 147.24 403.29Z" fill="#263238"/>
<path d="M146.31 401.44C146.629 401.562 146.969 401.617 147.31 401.6C147.645 401.651 147.987 401.624 148.31 401.52C147.991 401.399 147.651 401.345 147.31 401.36C146.76 401.34 146.31 401.37 146.31 401.44Z" fill="#263238"/>
<path d="M146 400.15C146.327 400.375 146.713 400.5 147.11 400.51C147.5 400.586 147.904 400.544 148.27 400.39C147.895 400.313 147.513 400.276 147.13 400.28C146.759 400.194 146.38 400.151 146 400.15Z" fill="#263238"/>
<path d="M149.48 402.5C149.887 402.569 150.303 402.569 150.71 402.5C151.16 402.455 151.605 402.372 152.04 402.25C152.303 402.181 152.558 402.084 152.8 401.96C152.95 401.882 153.065 401.75 153.12 401.59C153.144 401.499 153.14 401.403 153.11 401.315C153.08 401.226 153.024 401.148 152.95 401.09C152.485 400.844 151.949 400.766 151.433 400.87C150.918 400.974 150.454 401.253 150.12 401.66C149.923 401.902 149.777 402.181 149.69 402.48C149.668 402.589 149.668 402.701 149.69 402.81C149.833 402.446 150.036 402.108 150.29 401.81C150.576 401.494 150.948 401.268 151.36 401.16C151.853 401.015 152.383 401.065 152.84 401.3C153.03 401.45 152.94 401.68 152.72 401.81C152.495 401.921 152.261 402.011 152.02 402.08C151.598 402.211 151.167 402.311 150.73 402.38C150 402.47 149.48 402.46 149.48 402.5Z" fill="#263238"/>
<path d="M149.79 402.57C149.95 402.317 150.01 402.014 149.96 401.72C149.934 401.392 149.827 401.076 149.65 400.8C149.553 400.614 149.41 400.457 149.235 400.341C149.06 400.226 148.859 400.156 148.65 400.14C148.523 400.162 148.41 400.233 148.335 400.338C148.26 400.443 148.23 400.573 148.25 400.7C148.275 400.899 148.343 401.09 148.45 401.26C148.6 401.538 148.789 401.794 149.01 402.02C149.196 402.247 149.432 402.429 149.7 402.55C149.7 402.55 149.46 402.32 149.13 401.91C148.941 401.678 148.776 401.426 148.64 401.16C148.48 400.89 148.37 400.42 148.69 400.37C149.01 400.32 149.3 400.67 149.48 400.92C149.65 401.165 149.763 401.445 149.81 401.74C149.832 402.016 149.825 402.295 149.79 402.57Z" fill="#263238"/>
<path d="M129 400.63C129 400.68 129.56 400.63 130.42 400.73C131.552 400.885 132.616 401.359 133.488 402.098C134.359 402.836 135.002 403.809 135.34 404.9C135.47 405.358 135.577 405.822 135.66 406.29C135.686 406.161 135.686 406.029 135.66 405.9C135.626 405.562 135.566 405.228 135.48 404.9C135.17 403.757 134.52 402.734 133.617 401.968C132.713 401.202 131.599 400.729 130.42 400.61C130.068 400.574 129.712 400.574 129.36 400.61C129.24 400.602 129.119 400.609 129 400.63Z" fill="#263238"/>
<path d="M131.24 392.68C131.072 393.99 130.975 395.309 130.95 396.63C130.858 397.961 130.841 399.297 130.9 400.63C131.069 399.32 131.166 398.001 131.19 396.68C131.288 395.349 131.305 394.013 131.24 392.68Z" fill="#263238"/>
<path d="M138.17 404.59C139.083 404.836 140.025 404.96 140.97 404.96C141.912 405.033 142.86 404.986 143.79 404.82C143.79 404.75 142.53 404.82 140.98 404.73C139.43 404.64 138.18 404.53 138.17 404.59Z" fill="#263238"/>
<path d="M134.4 404.47C134.4 404.47 134.49 404.74 134.61 405.03C134.73 405.32 134.79 405.59 134.86 405.58C134.93 405.57 134.97 405.28 134.86 404.95C134.75 404.62 134.44 404.43 134.4 404.47Z" fill="#263238"/>
<path d="M133 402.66C133 402.66 133.07 402.91 133.26 403.12C133.45 403.33 133.65 403.46 133.7 403.41C133.75 403.36 133.63 403.17 133.43 402.96C133.23 402.75 133.08 402.62 133 402.66Z" fill="#263238"/>
<path d="M131 401.79C131 401.86 131.27 401.86 131.55 401.97C131.83 402.08 132.03 402.23 132.08 402.19C132.13 402.15 131.98 401.88 131.63 401.75C131.28 401.62 131 401.73 131 401.79Z" fill="#263238"/>
<path d="M129.58 401.36C129.58 401.42 129.67 401.52 129.82 401.59C129.97 401.66 130.13 401.66 130.15 401.59C130.17 401.52 130.07 401.42 129.91 401.36C129.75 401.3 129.61 401.3 129.58 401.36Z" fill="#263238"/>
<g opacity="0.3">
<path d="M129.04 400.12L148.28 400.39L148.32 398.07L128.93 398.89L129.04 400.12Z" fill="black"/>
</g>
<path d="M178.59 403.76V393.48L159.33 393.41L159.22 408.41L160.41 408.49C165.72 408.8 187.41 409.71 191 408.65C194.94 407.5 178.59 403.76 178.59 403.76Z" fill="#219DFF"/>
<g opacity="0.4">
<path d="M186.57 405.87C186.57 405.87 192.3 407.55 191.57 408.49C190.84 409.43 168.87 409.34 159.18 408.49V408.06L184.82 408.39C184.82 408.39 185.45 405.92 186.57 405.87Z" fill="white"/>
</g>
<path d="M158.92 408H159.25L160.2 408.06L163.7 408.23C166.65 408.35 170.7 408.46 175.25 408.48C179.8 408.5 183.85 408.48 186.81 408.35L190.31 408.22L191.26 408.16H191.59H190.31L186.81 408.21C183.81 408.21 179.76 408.3 175.25 408.28C170.74 408.26 166.66 408.17 163.7 408.1L160.2 408H158.92Z" fill="#263238"/>
<path d="M184.86 408.65C185.01 408.068 185.232 407.507 185.52 406.98C185.867 406.488 186.27 406.039 186.72 405.64C186.118 405.859 185.619 406.294 185.32 406.86C184.947 407.378 184.783 408.017 184.86 408.65Z" fill="#263238"/>
<path d="M179.19 405.74C179.24 405.74 179.51 405.44 179.8 405C180.09 404.56 180.26 404.18 180.21 404.14C180.16 404.1 179.88 404.44 179.6 404.88C179.32 405.32 179.13 405.7 179.19 405.74Z" fill="#263238"/>
<path d="M177.63 404.91C177.63 404.91 177.98 404.75 178.31 404.46C178.64 404.17 178.88 403.88 178.84 403.83C178.8 403.78 178.49 403.99 178.16 404.28C177.83 404.57 177.59 404.86 177.63 404.91Z" fill="#263238"/>
<path d="M176.65 403.09C176.971 403.203 177.311 403.247 177.65 403.22C177.987 403.261 178.328 403.227 178.65 403.12C178.65 403.05 178.21 402.99 177.65 402.99C177.09 402.99 176.65 403 176.65 403.09Z" fill="#263238"/>
<path d="M176.32 401.8C176.652 402.019 177.042 402.134 177.44 402.13C177.833 402.208 178.24 402.156 178.6 401.98C178.223 401.922 177.842 401.895 177.46 401.9C177.084 401.833 176.702 401.799 176.32 401.8Z" fill="#263238"/>
<path d="M179.85 404.06C180.256 404.137 180.674 404.137 181.08 404.06C181.529 404.01 181.972 403.913 182.4 403.77C182.665 403.702 182.92 403.601 183.16 403.47C183.308 403.383 183.419 403.244 183.47 403.08C183.488 402.989 183.48 402.894 183.446 402.807C183.413 402.721 183.355 402.645 183.28 402.59C182.809 402.356 182.271 402.293 181.759 402.411C181.246 402.53 180.791 402.823 180.47 403.24C180.283 403.485 180.144 403.763 180.06 404.06C180.034 404.172 180.034 404.288 180.06 404.4C180.193 404.037 180.386 403.699 180.63 403.4C180.911 403.075 181.279 402.835 181.69 402.71C182.175 402.551 182.704 402.59 183.16 402.82C183.36 402.97 183.28 403.2 183.06 403.33C182.841 403.451 182.61 403.548 182.37 403.62C181.952 403.76 181.524 403.87 181.09 403.95C180.32 404 179.85 404 179.85 404.06Z" fill="#263238"/>
<path d="M180.17 404.13C180.315 403.868 180.364 403.564 180.31 403.27C180.276 402.944 180.163 402.632 179.98 402.36C179.878 402.181 179.733 402.03 179.558 401.92C179.384 401.811 179.185 401.745 178.98 401.73C178.917 401.742 178.858 401.766 178.805 401.801C178.751 401.837 178.706 401.882 178.67 401.935C178.635 401.988 178.611 402.048 178.598 402.111C178.586 402.173 178.587 402.238 178.6 402.3C178.629 402.497 178.7 402.684 178.81 402.85C178.97 403.124 179.165 403.376 179.39 403.6C179.77 403.98 180.08 404.13 180.09 404.1C180.1 404.07 179.85 403.88 179.51 403.49C179.314 403.257 179.139 403.006 178.99 402.74C178.82 402.48 178.71 402.01 178.99 401.96C179.27 401.91 179.61 402.24 179.8 402.48C179.975 402.721 180.095 402.997 180.15 403.29C180.18 403.569 180.187 403.85 180.17 404.13Z" fill="#263238"/>
<path d="M159.33 402.74C159.33 402.74 159.88 402.69 160.75 402.8C161.884 402.931 162.958 403.378 163.85 404.09C164.736 404.81 165.404 405.762 165.78 406.84C166.07 407.66 166.1 408.22 166.14 408.21C166.16 408.081 166.16 407.949 166.14 407.82C166.103 407.481 166.036 407.147 165.94 406.82C165.599 405.686 164.922 404.682 163.999 403.939C163.077 403.197 161.951 402.751 160.77 402.66C160.417 402.627 160.063 402.627 159.71 402.66C159.46 402.69 159.33 402.72 159.33 402.74Z" fill="#263238"/>
<path d="M161.36 394.73C161.221 396.059 161.16 397.394 161.18 398.73C161.112 400.063 161.129 401.399 161.23 402.73C161.363 401.401 161.424 400.066 161.41 398.73C161.478 397.397 161.461 396.061 161.36 394.73Z" fill="#263238"/>
<path d="M168.6 406.46C169.52 406.678 170.465 406.775 171.41 406.75C172.356 406.797 173.303 406.724 174.23 406.53C174.23 406.47 172.96 406.53 171.41 406.53C169.86 406.53 168.61 406.39 168.6 406.46Z" fill="#263238"/>
<path d="M164.82 406.43C164.82 406.48 164.93 406.7 165.05 406.99C165.17 407.28 165.25 407.54 165.32 407.53C165.39 407.52 165.42 407.23 165.27 406.9C165.12 406.57 164.87 406.39 164.82 406.43Z" fill="#263238"/>
<path d="M163.41 404.66C163.36 404.66 163.49 404.9 163.69 405.11C163.89 405.32 164.08 405.44 164.13 405.39C164.18 405.34 164.05 405.15 163.85 404.94C163.65 404.73 163.46 404.61 163.41 404.66Z" fill="#263238"/>
<path d="M161.38 403.84C161.38 403.91 161.65 403.91 161.93 404.01C162.21 404.11 162.42 404.26 162.47 404.22C162.52 404.18 162.36 403.91 162.01 403.79C161.66 403.67 161.36 403.78 161.38 403.84Z" fill="#263238"/>
<path d="M159.93 403.45C159.93 403.51 160.02 403.61 160.18 403.68C160.34 403.75 160.49 403.74 160.51 403.68C160.53 403.62 160.42 403.52 160.26 403.46C160.1 403.4 160 403.39 159.93 403.45Z" fill="#263238"/>
<g opacity="0.3">
<path d="M159.36 402.22L178.6 401.99L178.58 399.67L159.21 401L159.36 402.22Z" fill="black"/>
</g>
<path d="M136.07 227.79L143.78 251C145.86 257.27 151.34 258.35 157.95 258.35H200.84V248.72L161.66 243.13L152.32 219.27L136.07 227.79Z" fill="#FFBE9D"/>
<path d="M205.56 246.73L208.96 245.12C208.96 245.12 212.63 238.03 213.47 238.32C214.31 238.61 214.56 240.69 213.09 243.94L217.61 242.65C217.61 242.65 227.41 247.18 226.98 247.79C226.55 248.4 225.74 249.85 223.61 248.79C221.48 247.73 218.67 246.41 218.67 246.41L213.39 247.92L220.2 248.79L226.61 254.61C226.61 254.61 224.5 256.19 222.69 254.52L206.05 258.09L200.84 258.39V248.76L205.56 246.73Z" fill="#FFBE9D"/>
<path d="M222.69 254.49C222.62 254.49 222.31 254.04 221.69 253.39C221.337 253.017 220.929 252.7 220.48 252.45C219.916 252.18 219.305 252.02 218.68 251.98C216.989 251.865 215.314 251.58 213.68 251.13C215.374 251.072 217.069 251.186 218.74 251.47C219.44 251.513 220.123 251.707 220.74 252.04C221.221 252.33 221.645 252.707 221.99 253.15C222.338 253.527 222.58 253.989 222.69 254.49Z" fill="#EB996E"/>
<path d="M220.09 255.15C220.02 255.15 219.97 254.81 219.51 254.71C219.05 254.61 218.27 254.53 217.51 254.45C216.53 254.434 215.554 254.337 214.59 254.16C215.553 253.824 216.587 253.745 217.59 253.93C218.301 253.992 219.002 254.136 219.68 254.36C219.799 254.404 219.905 254.474 219.992 254.566C220.079 254.658 220.143 254.769 220.18 254.89C220.18 255.07 220.12 255.16 220.09 255.15Z" fill="#EB996E"/>
<path d="M99.86 132.32L97.53 179.5L117.73 181.4L118.85 170C118.85 170 125.97 171.76 128.13 165.17C129.52 160.96 130.75 127.98 130.75 127.98L99.86 132.32Z" fill="#FFBE9D"/>
<path d="M132.49 133.44C133.05 137.86 126.88 140.44 126.88 140.44L125.8 150.89C124.835 150.821 123.865 150.821 122.9 150.89C123.42 145.99 117.1 146.95 116.46 150.29C115.82 153.63 119.46 155.65 119.46 155.65C116.94 159.52 115.91 161.57 112.33 165.2C108.45 169.13 106.33 169.45 102.33 169.33L97.92 169.13C97.92 169.13 96.34 165.36 95.19 156.45C94.64 152.17 91.29 146.55 92.25 139.59C94.95 119.8 113.91 121.89 113.91 121.89C123.82 122.1 131.19 123.2 132.49 133.44Z" fill="#263238"/>
<path d="M118 122.4C122.28 122.51 126.72 122.85 130.48 124.9C134.24 126.95 137.14 131.18 136.37 135.39L134.23 135.78L133.35 134.2C133.35 135.04 133.35 135.88 133.35 136.72L129.59 137.77C129.024 134.56 127.894 131.475 126.25 128.66" fill="#263238"/>
<path d="M100.66 144.11C100.511 143.882 100.4 143.633 100.33 143.37C100.088 142.67 99.907 141.951 99.79 141.22C99.3836 138.793 99.5529 136.304 100.284 133.954C101.015 131.604 102.288 129.458 104 127.69C104.504 127.151 105.057 126.659 105.65 126.22C105.858 126.038 106.094 125.893 106.35 125.79C106.4 125.86 105.48 126.55 104.27 127.93C102.698 129.728 101.516 131.832 100.8 134.11C100.112 136.396 99.901 138.799 100.18 141.17C100.37 143 100.75 144.08 100.66 144.11Z" fill="#455A64"/>
<path d="M104.64 142.46C104.252 141.699 103.986 140.883 103.85 140.04C103.406 138.025 103.275 135.954 103.46 133.9C103.634 131.839 104.119 129.816 104.9 127.9C105.182 127.091 105.59 126.331 106.11 125.65C105.034 128.299 104.317 131.08 103.98 133.92C103.818 136.783 104.04 139.655 104.64 142.46Z" fill="#455A64"/>
<path d="M130.43 135.14C130.33 135.14 130.16 133.92 129.34 132.14C128.287 129.793 126.598 127.787 124.466 126.349C122.333 124.91 119.841 124.097 117.27 124C115.27 123.91 114.08 124.21 114.06 124.12C114.323 123.987 114.607 123.899 114.9 123.86C115.684 123.705 116.481 123.631 117.28 123.64C119.949 123.636 122.558 124.434 124.769 125.93C126.98 127.425 128.691 129.551 129.68 132.03C129.982 132.768 130.207 133.535 130.35 134.32C130.422 134.587 130.449 134.864 130.43 135.14Z" fill="#455A64"/>
<path d="M101.29 118.58C102.42 118.819 103.439 119.423 104.19 120.3C105.067 121.052 105.666 122.077 105.89 123.21C105.75 123.27 105.1 121.93 103.82 120.66C102.54 119.39 101.22 118.73 101.29 118.58Z" fill="#263238"/>
<path d="M106 118.6C106.15 118.65 105.84 119.71 105.9 121.02C105.96 122.33 106.32 123.35 106.18 123.42C105.618 122.759 105.331 121.907 105.38 121.04C105.261 120.177 105.483 119.301 106 118.6Z" fill="#455A64"/>
<path d="M132.44 222.73L135.73 233.9L156.67 224.43C155.92 222.09 152.45 211.67 145.83 195.13C144.018 190.596 141.069 186.604 137.266 183.541C133.463 180.478 128.936 178.445 124.12 177.64C117.518 176.435 110.83 175.766 104.12 175.64C92.38 175.77 75.12 183.11 72.78 194.64C71 203.42 72.71 218.93 72.71 237.77L74.24 273.77L134.4 275.77L132.44 222.73Z" fill="#219DFF"/>
<g opacity="0.3">
<path d="M72.74 229.45C80.06 230.95 87.57 229.45 95.03 229C99.55 228.73 104.57 228.24 108.15 231C110.99 233.2 112.15 236.91 112.95 240.41C116.07 253.74 116.63 262.68 117.33 276.35L81.12 278.55L72.74 229.45Z" fill="black"/>
</g>
<path d="M144.07 191.68C144.07 191.83 128.27 191.94 108.79 191.94C89.31 191.94 73.52 191.83 73.52 191.68C73.52 191.53 89.31 191.42 108.79 191.42C128.27 191.42 144.07 191.54 144.07 191.68Z" fill="#FAFAFA"/>
<path d="M148.46 201.79C148.46 201.93 131.28 202.05 110.11 202.05C88.94 202.05 71.76 201.93 71.76 201.79C71.76 201.65 88.92 201.53 110.11 201.53C131.3 201.53 148.46 201.65 148.46 201.79Z" fill="#FAFAFA"/>
<path d="M154 214.47C154 214.62 135.68 214.73 113.08 214.73C90.48 214.73 72.16 214.62 72.16 214.47C72.16 214.32 90.48 214.21 113.08 214.21C135.68 214.21 154 214.33 154 214.47Z" fill="#FAFAFA"/>
<path d="M132 228.15C132 228.29 126.27 228.41 119.22 228.41C112.17 228.41 106.43 228.29 106.43 228.15C106.43 228.01 112.15 227.89 119.22 227.89C126.29 227.89 132 228 132 228.15Z" fill="#FAFAFA"/>
<path d="M133.17 243C133.17 243.14 127.17 243.21 119.79 243.15C112.41 243.09 106.41 242.93 106.41 242.78C106.41 242.63 112.41 242.57 119.79 242.63C127.17 242.69 133.17 242.83 133.17 243Z" fill="#FAFAFA"/>
<path d="M133.75 255.05C133.404 255.113 133.051 255.13 132.7 255.1L129.83 255.04C127.41 254.99 124.07 254.92 120.38 254.92C116.69 254.92 113.38 254.98 110.93 255.03L108.06 255.09C107.708 255.136 107.352 255.136 107 255.09C107.341 254.99 107.694 254.936 108.05 254.93C108.72 254.86 109.7 254.79 110.91 254.72C113.33 254.57 116.68 254.45 120.38 254.45C124.08 254.45 127.43 254.58 129.84 254.73C131.05 254.8 132.03 254.88 132.71 254.95C133.059 254.941 133.409 254.975 133.75 255.05Z" fill="#FAFAFA"/>
<path d="M133.56 264.81C133.56 264.95 127.66 265.07 120.38 265.07C113.1 265.07 107.21 264.95 107.21 264.81C107.21 264.67 113.1 264.55 120.38 264.55C127.66 264.55 133.56 264.66 133.56 264.81Z" fill="#FAFAFA"/>
<path d="M135.35 181.77C135.35 181.92 123.77 182.03 109.49 182.03C95.21 182.03 83.62 181.92 83.62 181.77C83.62 181.62 95.2 181.51 109.49 181.51C123.78 181.51 135.35 181.63 135.35 181.77Z" fill="#FAFAFA"/>
<path d="M134 183.65C134 183.71 133.4 183.74 132.4 184.13C131.012 184.739 129.814 185.709 128.93 186.94C127.654 188.789 126.936 190.965 126.86 193.21C126.784 195.971 126.998 198.733 127.5 201.45C128.341 206.426 129.463 211.35 130.86 216.2C131.35 218.01 131.76 219.5 132.07 220.63C132.238 221.167 132.369 221.715 132.46 222.27C132.22 221.761 132.026 221.233 131.88 220.69C131.54 219.69 131.06 218.16 130.5 216.3C129.012 211.458 127.843 206.524 127 201.53C126.499 198.773 126.297 195.97 126.4 193.17C126.504 190.845 127.29 188.602 128.66 186.72C129.597 185.458 130.878 184.492 132.35 183.94C132.749 183.804 133.161 183.71 133.58 183.66C133.719 183.636 133.86 183.633 134 183.65Z" fill="#263238"/>
<path d="M156 221.57C155.068 222.221 154.081 222.79 153.05 223.27C151.19 224.27 148.58 225.52 145.66 226.84C142.74 228.16 140.06 229.26 138.1 230.01C137.058 230.46 135.981 230.825 134.88 231.1C135.87 230.548 136.899 230.07 137.96 229.67C139.88 228.83 142.54 227.67 145.45 226.37C148.36 225.07 150.98 223.82 152.88 222.94C153.888 222.413 154.93 221.955 156 221.57Z" fill="#263238"/>
<path d="M92.81 274.36L164.69 276.9C170.298 277.101 175.605 279.492 179.471 283.56C183.337 287.628 185.455 293.049 185.37 298.66L182.37 401.32L154.6 400.4L156.67 304.28L92.8 302.6L92.81 274.36Z" fill="#263238"/>
<path d="M63.11 274.36L135 276.9C140.608 277.101 145.915 279.492 149.781 283.56C153.647 287.628 155.765 293.049 155.68 298.66L152.68 401.32L124.54 399.09L127 304.28L63.13 302.6L63.11 274.36Z" fill="#263238"/>
<path d="M116.91 311.65H109.84V396.36H116.91V311.65Z" fill="#455A64"/>
<path d="M50.51 229.43V291.79C50.51 295.718 52.0703 299.485 54.8478 302.262C57.6252 305.04 61.3922 306.6 65.32 306.6H106.85V229.43C106.85 228.563 106.679 227.705 106.348 226.904C106.016 226.104 105.53 225.376 104.917 224.763C104.304 224.15 103.576 223.664 102.776 223.332C101.975 223.001 101.117 222.83 100.25 222.83H57.11C56.2433 222.83 55.3851 223.001 54.5843 223.332C53.7836 223.664 53.056 224.15 52.4431 224.763C51.8302 225.376 51.3441 226.104 51.0124 226.904C50.6807 227.705 50.51 228.563 50.51 229.43Z" fill="#455A64"/>
<path d="M162.73 311.65H61.61C61.61 308.733 62.7689 305.935 64.8318 303.872C66.8947 301.809 69.6926 300.65 72.61 300.65H151.78C154.697 300.65 157.495 301.809 159.558 303.872C161.621 305.935 162.78 308.733 162.78 311.65H162.73Z" fill="#455A64"/>
<path d="M106.85 299.22C106.863 299.38 106.863 299.54 106.85 299.7C106.842 300.158 106.785 300.614 106.68 301.06C106.347 302.472 105.609 303.756 104.558 304.756C103.507 305.756 102.187 306.428 100.76 306.69C99.4317 306.832 98.0952 306.882 96.76 306.84H87.67C81.22 306.84 75.38 306.84 71.16 306.78L66.16 306.71L64.8 306.66C64.6388 306.658 64.4782 306.641 64.32 306.61C64.476 306.565 64.6379 306.545 64.8 306.55L66.16 306.5L71.16 306.41C75.38 306.36 81.22 306.33 87.67 306.32H96.75C98.0606 306.373 99.3732 306.343 100.68 306.23C101.787 306.041 102.835 305.596 103.74 304.93C105.077 303.944 106.039 302.534 106.47 300.93C106.82 299.88 106.79 299.22 106.85 299.22Z" fill="#263238"/>
<path d="M119.58 311.87C117.521 312.133 115.444 312.22 113.37 312.13C111.3 312.22 109.226 312.133 107.17 311.87C109.226 311.613 111.3 311.526 113.37 311.61C115.444 311.526 117.521 311.613 119.58 311.87Z" fill="#263238"/>
<path d="M150.34 307.14C150.043 306.161 149.836 305.157 149.72 304.14C149.38 302.22 148.93 299.43 148.39 295.99C147.85 292.55 147.48 288.38 145.58 284.25C144.584 282.102 143.325 280.086 141.83 278.25C140.196 276.302 138.298 274.592 136.19 273.17C134.091 271.732 131.784 270.622 129.35 269.88C127.083 269.156 124.728 268.749 122.35 268.67C117.78 268.57 113.6 268.59 110.12 268.52C106.64 268.45 103.81 268.42 101.86 268.36C100.856 268.383 99.8513 268.313 98.86 268.15C99.8521 267.994 100.856 267.928 101.86 267.95C103.81 267.89 106.63 267.83 110.12 267.79C113.61 267.75 117.74 267.66 122.38 267.72C127.508 267.841 132.493 269.434 136.74 272.31C138.933 273.781 140.9 275.563 142.58 277.6C144.126 279.513 145.42 281.617 146.43 283.86C146.66 284.39 146.85 284.94 147.06 285.47L147.36 286.27C147.43 286.54 147.51 286.81 147.58 287.08C147.73 287.61 147.88 288.14 148.02 288.66C148.16 289.18 148.21 289.71 148.31 290.22C148.66 292.27 148.85 294.15 149.09 295.89C149.53 299.34 149.88 302.15 150.09 304.08C150.265 305.09 150.349 306.115 150.34 307.14Z" fill="#455A64"/>
<path d="M144.3 404H143.3C143.373 400.003 142.649 396.032 141.169 392.318C139.69 388.604 137.486 385.222 134.685 382.369C131.884 379.517 128.543 377.251 124.857 375.705C121.17 374.158 117.213 373.361 113.215 373.361C109.217 373.361 105.26 374.158 101.573 375.705C97.8872 377.251 94.546 379.517 91.7451 382.369C88.9442 385.222 86.7398 388.604 85.2606 392.318C83.7814 396.032 83.0571 400.003 83.13 404H82.13C82.0559 399.871 82.8053 395.768 84.3342 391.932C85.8631 388.096 88.1409 384.603 91.0348 381.656C93.9286 378.71 97.3804 376.37 101.189 374.773C104.997 373.175 109.085 372.352 113.215 372.352C117.345 372.352 121.433 373.175 125.241 374.773C129.05 376.37 132.501 378.71 135.395 381.656C138.289 384.603 140.567 388.096 142.096 391.932C143.625 395.768 144.374 399.871 144.3 404Z" fill="#455A64"/>
<path d="M87.29 405.58C87.29 406.502 87.0167 407.403 86.5047 408.169C85.9926 408.935 85.2648 409.532 84.4133 409.885C83.5618 410.238 82.6249 410.33 81.7209 410.15C80.817 409.971 79.9866 409.527 79.3349 408.875C78.6832 408.223 78.2394 407.393 78.0596 406.489C77.8798 405.585 77.972 404.648 78.3247 403.797C78.6774 402.945 79.2748 402.217 80.0411 401.705C80.8074 401.193 81.7084 400.92 82.63 400.92C83.2424 400.919 83.8489 401.038 84.4149 401.272C84.9809 401.506 85.4951 401.849 85.9281 402.282C86.3611 402.715 86.7043 403.229 86.938 403.795C87.1717 404.361 87.2914 404.968 87.29 405.58Z" fill="#263238"/>
<path d="M148.69 404.94C148.69 405.862 148.417 406.763 147.905 407.529C147.393 408.295 146.665 408.893 145.813 409.245C144.962 409.598 144.025 409.69 143.121 409.51C142.217 409.331 141.387 408.887 140.735 408.235C140.083 407.583 139.639 406.753 139.46 405.849C139.28 404.945 139.372 404.008 139.725 403.157C140.077 402.305 140.675 401.577 141.441 401.065C142.207 400.553 143.108 400.28 144.03 400.28C145.266 400.28 146.451 400.771 147.325 401.645C148.199 402.519 148.69 403.704 148.69 404.94Z" fill="#263238"/>
<path d="M144 396.36C144 396.51 130.47 396.63 113.79 396.63C97.11 396.63 83.58 396.51 83.58 396.36C83.58 396.21 97.1 396.1 113.79 396.1C130.48 396.1 144 396.22 144 396.36Z" fill="#455A64"/>
<path d="M40.8 201.77C41.5374 202.236 42.1739 202.845 42.672 203.562C43.1701 204.278 43.5196 205.087 43.7 205.94C44.0419 207.66 43.9872 209.435 43.54 211.13C42.78 214.41 40.54 217.55 38.14 219.97C35.63 217.2 35.48 212.86 35.54 210.65C35.64 207.16 37.95 200.91 40.8 201.77Z" fill="#219DFF"/>
<path d="M40.76 225.85C40.6843 224.88 40.8653 223.907 41.2849 223.03C41.7044 222.152 42.3477 221.4 43.15 220.85C43.9652 220.312 44.8792 219.942 45.8387 219.76C46.7983 219.578 47.7844 219.588 48.74 219.79C49.1883 219.837 49.621 219.981 50.0079 220.213C50.3948 220.444 50.7265 220.757 50.98 221.13C51.1565 221.514 51.2274 221.938 51.1852 222.358C51.143 222.778 50.9893 223.179 50.74 223.52C50.2238 224.201 49.5327 224.73 48.74 225.05C46.13 226.29 43.38 227.05 40.74 225.87" fill="#219DFF"/>
<path d="M36.54 233.17C36.6786 232.437 36.8931 231.719 37.18 231.03C37.4595 230.264 37.8323 229.535 38.29 228.86C38.8129 228.017 39.3944 227.212 40.03 226.45C41.1993 225.047 42.697 223.955 44.39 223.27C44.9051 223.081 45.4377 222.944 45.98 222.86C46.1786 222.827 46.3813 222.827 46.58 222.86C46.58 222.93 45.74 223.02 44.49 223.55C42.8801 224.286 41.4553 225.372 40.32 226.73C39.6928 227.477 39.1117 228.262 38.58 229.08C38.1221 229.731 37.7333 230.428 37.42 231.16C37.1749 231.85 36.8808 232.522 36.54 233.17Z" fill="#263238"/>
<path d="M39.46 206.68C39.4973 207.056 39.4973 207.434 39.46 207.81C39.46 208.53 39.36 209.58 39.27 210.87C39.08 213.46 38.77 217.03 38.35 220.97C37.93 224.91 37.43 228.45 37.02 230.97C36.81 232.25 36.64 233.28 36.5 233.97C36.4484 234.343 36.3647 234.711 36.25 235.07C36.2466 234.691 36.2801 234.313 36.35 233.94C36.46 233.16 36.59 232.13 36.75 230.94C37.09 228.37 37.54 224.82 37.97 220.88C38.4 216.94 38.73 213.45 38.97 210.81C39.1 209.57 39.21 208.54 39.29 207.75C39.3206 207.39 39.3774 207.032 39.46 206.68Z" fill="#263238"/>
<path d="M36.38 226.64C35.9943 224.616 35.133 222.713 33.8673 221.087C32.6015 219.462 30.9675 218.16 29.1 217.29C28.1 216.86 26.91 216.59 26.15 217.29C25.39 217.99 25.59 219.29 25.99 220.24C26.8616 222.246 28.3081 223.948 30.1467 225.131C31.9854 226.315 34.1336 226.927 36.32 226.89" fill="#219DFF"/>
<path d="M29.83 220.27C30.0192 220.328 30.198 220.416 30.36 220.53C32.3815 221.691 34.1415 223.257 35.53 225.13C36.0767 225.959 36.4853 226.871 36.74 227.83C36.9374 228.614 37.0282 229.422 37.01 230.23C36.996 230.771 36.9324 231.31 36.82 231.84C36.7938 232.04 36.74 232.235 36.66 232.42C36.58 232.42 36.76 231.57 36.74 230.23C36.7205 229.45 36.6098 228.675 36.41 227.92C36.1421 227.005 35.7375 226.135 35.21 225.34C34.2 223.91 32.9677 222.651 31.56 221.61C30.9562 221.199 30.3785 220.752 29.83 220.27Z" fill="#263238"/>
<path d="M36.05 258.36C32.7339 258.357 29.5545 257.038 27.2105 254.692C24.8666 252.347 23.55 249.166 23.55 245.85V233.35H48.55V245.85C48.55 249.166 47.2333 252.347 44.8894 254.692C42.5455 257.038 39.3661 258.357 36.05 258.36Z" fill="#263238"/>
<path d="M48.56 239.5C48.4591 239.628 48.3452 239.746 48.22 239.85L47.22 240.78L43.41 244L43.32 244.07L43.21 244.01L36 239.68H36.21L29.42 244L29.32 244.07L29.22 243.99L25.07 240.74L23.93 239.82C23.7888 239.716 23.6611 239.595 23.55 239.46C23.7129 239.527 23.8647 239.618 24 239.73C24.32 239.96 24.72 240.25 25.2 240.58L29.43 243.72H29.23L35.94 239.3L36.05 239.23L36.16 239.29L43.37 243.71H43.17L47.04 240.58L48.13 239.72C48.41 239.58 48.55 239.48 48.56 239.5Z" fill="#E0E0E0"/>
<path d="M48.56 237C48.4591 237.128 48.3451 237.245 48.22 237.35L47.22 238.28L43.45 241.53L43.36 241.6L43.25 241.54L36 237.18H36.21L29.46 241.55L29.36 241.62L29.26 241.54L25.11 238.29L23.97 237.37C23.8288 237.266 23.7011 237.145 23.59 237.01C23.7529 237.076 23.9047 237.168 24.04 237.28L25.24 238.13L29.47 241.27H29.27L35.98 236.85L36.09 236.78L36.2 236.84L43.41 241.26H43.21L47.08 238.13L48.17 237.27C48.41 237.08 48.55 237 48.56 237Z" fill="#E0E0E0"/>
<path d="M48.56 242C48.56 242 48.45 242.14 48.22 242.36L47.22 243.28L43.45 246.53L43.36 246.61L43.25 246.54L36 242.23H36.21L29.46 246.6L29.36 246.67L29.26 246.6C27.59 245.28 26.18 244.18 25.11 243.35L23.97 242.42C23.71 242.2 23.58 242.08 23.59 242.06C23.7503 242.132 23.9014 242.222 24.04 242.33C24.36 242.57 24.76 242.85 25.24 243.19L29.47 246.32H29.27L35.98 241.9L36.09 241.83L36.2 241.9L43.41 246.31H43.21L47.08 243.17L48.17 242.32C48.2854 242.197 48.4165 242.089 48.56 242Z" fill="#E0E0E0"/>
<path d="M372.56 287.72C367.38 288.56 365.06 294.92 365.56 300.15C366.06 305.38 368.17 310.5 367.56 315.71C366.83 322.34 361.82 327.94 361.24 334.58C360.55 342.41 366.09 349.36 367.74 357.04C368.55 360.78 368.44 364.74 369.83 368.3C371.017 371.332 373.218 373.859 376.059 375.45C378.9 377.04 382.205 377.596 385.41 377.023C388.615 376.45 391.522 374.782 393.636 372.306C395.749 369.829 396.938 366.695 397 363.44C397.11 357.44 393.4 351.77 393.85 345.77C394.18 341.34 396.78 337.14 396.23 332.77C395.56 327.52 390.7 323.77 388.98 318.77C387.26 313.77 388.92 308.25 388.32 302.99C387.26 293.56 382.03 286.99 372.57 287.74" fill="#219DFF"/>
<path d="M346.1 333.39C345.21 342.13 349.1 352.39 353.57 359.96C358.119 367.564 364.975 373.519 373.14 376.96C374.05 377.34 375.19 377.66 375.96 377.04C376.234 376.741 376.44 376.385 376.562 375.999C376.685 375.612 376.722 375.203 376.67 374.8C376.736 365.523 373.793 356.474 368.281 349.012C362.769 341.549 354.987 336.075 346.1 333.41" fill="#219DFF"/>
<g opacity="0.2">
<path d="M346.1 333.39C345.21 342.13 349.1 352.39 353.57 359.96C358.119 367.564 364.975 373.519 373.14 376.96C374.05 377.34 375.19 377.66 375.96 377.04C376.234 376.741 376.44 376.385 376.562 375.999C376.685 375.612 376.722 375.203 376.67 374.8C376.736 365.523 373.793 356.474 368.281 349.012C362.769 341.549 354.987 336.075 346.1 333.41" fill="black"/>
</g>
<path d="M384.17 395.21C384.065 395.062 383.981 394.901 383.92 394.73L383.29 393.29C382.77 392.05 381.98 390.29 380.98 388.04C378.376 382.3 375.482 376.696 372.31 371.25C369.116 365.81 365.652 360.533 361.93 355.44C360.5 353.49 359.32 351.92 358.49 350.85C358.11 350.35 357.79 349.93 357.55 349.6C357.432 349.461 357.328 349.31 357.24 349.15C357.24 349.15 357.39 349.27 357.62 349.54L358.62 350.73C359.5 351.73 360.72 353.3 362.19 355.23C369.845 365.316 376.26 376.284 381.3 387.9C382.3 390.13 383 391.95 383.47 393.22L384.01 394.69C384.079 394.858 384.132 395.032 384.17 395.21Z" fill="#263238"/>
<path d="M378.54 311.9C378.596 312.177 378.63 312.458 378.64 312.74C378.64 313.33 378.74 314.13 378.81 315.15C378.95 317.28 379.14 320.3 379.38 324C379.85 331.48 380.51 341.81 381.32 353.21C382.13 364.61 382.91 374.94 383.49 382.41C383.77 386.11 384 389.12 384.17 391.26C384.24 392.26 384.29 393.07 384.33 393.66C384.354 393.943 384.354 394.227 384.33 394.51C384.33 394.51 384.28 394.22 384.21 393.67C384.14 393.12 384.06 392.28 383.95 391.27C383.75 389.14 383.47 386.13 383.12 382.44C382.45 374.97 381.6 364.66 380.8 353.25C380 341.84 379.41 331.51 379 324C378.83 320.29 378.69 317.28 378.59 315.14C378.59 314.14 378.53 313.32 378.51 312.72C378.495 312.446 378.505 312.172 378.54 311.9Z" fill="#263238"/>
<path d="M370.5 382.75H392.39V398.82C392.387 401.606 391.279 404.276 389.308 406.245C387.337 408.214 384.666 409.32 381.88 409.32C379.191 409.321 376.605 408.291 374.653 406.442C372.701 404.592 371.533 402.065 371.39 399.38L370.5 382.75Z" fill="#263238"/>
<path d="M259.64 170.89L311.84 199.8L309.88 203.48L258.14 174.03L259.64 170.89Z" fill="#219DFF"/>
<path d="M257.07 168.16L259.47 164.49L260.87 165.35L258.72 169.05L257.07 168.16Z" fill="#219DFF"/>
<path d="M305.91 195.23L308.59 196.77L299.85 252.55L295.71 252.6L305.91 195.23Z" fill="#219DFF"/>
<path d="M283.68 258.36C283.68 258.36 290.05 251.92 298.57 252.36C301.005 252.449 303.398 253.019 305.612 254.037C307.826 255.054 309.817 256.5 311.47 258.29L283.68 258.36Z" fill="#219DFF"/>
<path d="M257.12 193.45L236.45 181.51L242.45 171.18C243.233 169.822 244.276 168.633 245.519 167.678C246.762 166.724 248.181 166.024 249.695 165.618C251.208 165.212 252.787 165.109 254.341 165.313C255.895 165.518 257.393 166.026 258.75 166.81C261.49 168.393 263.489 170.999 264.308 174.056C265.127 177.112 264.7 180.369 263.12 183.11L257.12 193.45Z" fill="#219DFF"/>
</g>
<defs>
<clipPath id="clip0_402_35">
<rect width="488" height="426" fill="white"/>
</clipPath>
</defs>
</svg>
