<svg width="50" height="50" viewBox="0 0 50 50" fill="none" xmlns="http://www.w3.org/2000/svg">
<path d="M38.4639 18.5548C37.8766 19.1383 37.0824 19.4658 36.2545 19.4658C35.4266 19.4658 34.6323 19.1383 34.045 18.5548L31.4503 15.9601C30.8662 15.3729 30.5383 14.5783 30.5383 13.7501C30.5383 12.9219 30.8662 12.1274 31.4503 11.5402L37.3233 5.66418C37.3349 5.653 37.3436 5.63912 37.3485 5.62378C37.3535 5.60843 37.3546 5.5921 37.3517 5.57624C37.3488 5.56038 37.342 5.54548 37.3319 5.53288C37.3219 5.52028 37.3088 5.51037 37.294 5.50403C33.503 3.87903 28.588 4.70715 25.4669 7.80578C22.4805 10.7697 22.3106 15.2277 23.4044 19.1183C23.5598 19.6713 23.5594 20.2565 23.4033 20.8093C23.2471 21.3621 22.9413 21.8611 22.5196 22.2511L6.25006 37.1095C5.77005 37.5351 5.38216 38.0544 5.11024 38.6354C4.83832 39.2164 4.68812 39.847 4.66887 40.4882C4.64962 41.1294 4.76173 41.7678 4.9983 42.3641C5.23488 42.9604 5.59093 43.502 6.04455 43.9556C6.49817 44.4093 7.03978 44.7653 7.63608 45.0019C8.23238 45.2385 8.87077 45.3506 9.512 45.3313C10.1532 45.3121 10.7837 45.1619 11.3648 44.8899C11.9458 44.618 12.4651 44.2301 12.8907 43.7501L27.9161 27.4415C28.3011 27.0269 28.7918 26.7249 29.3354 26.5678C29.879 26.4107 30.4551 26.4045 31.002 26.5499C34.8633 27.5841 39.2579 27.3898 42.2051 24.4806C45.378 21.3556 46.0626 15.8322 44.5245 12.671C44.5175 12.6572 44.5074 12.6452 44.495 12.6361C44.4825 12.6269 44.4681 12.6209 44.4528 12.6184C44.4376 12.6159 44.422 12.6171 44.4073 12.6218C44.3925 12.6266 44.3792 12.6347 44.3682 12.6456L38.4639 18.5548Z" stroke="url(#paint0_linear_185_187)" stroke-width="3" stroke-miterlimit="10" stroke-linecap="round"/>
<path d="M9.375 42.1875C10.2379 42.1875 10.9375 41.4879 10.9375 40.625C10.9375 39.7621 10.2379 39.0625 9.375 39.0625C8.51206 39.0625 7.8125 39.7621 7.8125 40.625C7.8125 41.4879 8.51206 42.1875 9.375 42.1875Z" fill="url(#paint1_linear_185_187)"/>
<defs>
<linearGradient id="paint0_linear_185_187" x1="24.9894" y1="4.68994" x2="24.9894" y2="45.3334" gradientUnits="userSpaceOnUse">
<stop stop-color="#EC4899"/>
<stop offset="0.5" stop-color="#9B75EB"/>
<stop offset="1" stop-color="#5821FC"/>
</linearGradient>
<linearGradient id="paint1_linear_185_187" x1="9.375" y1="39.0625" x2="9.375" y2="42.1875" gradientUnits="userSpaceOnUse">
<stop stop-color="#EC4899"/>
<stop offset="0.5" stop-color="#9B75EB"/>
<stop offset="1" stop-color="#5821FC"/>
</linearGradient>
</defs>
</svg>
