<svg width="50" height="50" viewBox="0 0 50 50" fill="none" xmlns="http://www.w3.org/2000/svg">
<g clip-path="url(#clip0_185_166)">
<path d="M42.5043 38.2021C45.7079 34.1807 47.633 29.0779 47.6316 23.5422C47.633 17.0494 44.992 11.1467 40.7363 6.89531C36.4837 2.63877 30.581 -0.00156181 24.0886 6.93111e-07C17.5958 -0.00156181 11.6936 2.63877 7.44143 6.89531C3.18518 11.1467 0.544556 17.0494 0.546021 23.5422C0.544556 30.0342 3.18518 35.9369 7.44143 40.1891C11.6936 44.4456 17.5959 47.0859 24.0887 47.0844C29.0641 47.0859 33.6895 45.5307 37.495 42.891L44.6051 50L49.454 45.1511L42.5043 38.2021ZM36.9637 36.4176C33.6604 39.7157 29.1251 41.7487 24.0886 41.7502C19.0521 41.7487 14.5168 39.7157 11.2131 36.4176C7.91389 33.1135 5.88157 28.5786 5.8801 23.5422C5.88157 18.5057 7.91389 13.9708 11.2131 10.6668C14.5168 7.36797 19.0521 5.33565 24.0886 5.33418C29.1251 5.33565 33.6603 7.36797 36.9637 10.6668C40.2636 13.9708 42.2959 18.5058 42.2974 23.5422C42.2959 28.5787 40.2636 33.1135 36.9637 36.4176Z" fill="url(#paint0_linear_185_166)"/>
<path d="M15.2272 22.9596L14.6709 22.8822C13.2492 22.6813 12.7391 22.1872 12.7391 21.4608C12.7391 20.6416 13.3262 20.0544 14.3926 20.0544C15.2733 20.0544 16.0614 20.3172 16.9115 20.8737C16.9886 20.9199 17.066 20.9043 17.1278 20.8269L17.8697 19.6839C17.9315 19.5908 17.9158 19.5291 17.8384 19.4673C17.0042 18.8341 15.7526 18.4165 14.4391 18.4165C12.2754 18.4165 10.8846 19.6838 10.8846 21.5845C10.8846 23.3303 12.0283 24.3044 14.0526 24.5819L14.6088 24.6593C16.0614 24.8603 16.525 25.3551 16.525 26.1119C16.525 26.993 15.7988 27.6263 14.547 27.6263C13.3728 27.6263 12.3681 27.0548 11.6883 26.5138C11.6266 26.4521 11.5339 26.4521 11.4721 26.5294L10.514 27.6419C10.4523 27.7192 10.4831 27.8115 10.5448 27.8741C11.3638 28.6465 12.8625 29.2642 14.4082 29.2642C17.0195 29.2642 18.3642 27.8741 18.3642 26.004C18.3642 24.1956 17.2512 23.238 15.2272 22.9596Z" fill="url(#paint1_linear_185_166)"/>
<path d="M26.9108 18.5862H20.328C20.2353 18.5862 20.1736 18.6479 20.1736 18.741V28.9397C20.1736 29.0328 20.2353 29.0945 20.328 29.0945H26.9108C27.0039 29.0945 27.0656 29.0328 27.0656 28.9397V27.6114C27.0656 27.5184 27.0039 27.4566 26.9108 27.4566H22.0897L21.997 27.3635V24.7061L22.0897 24.6131H26.1536C26.2466 24.6131 26.3084 24.5513 26.3084 24.4583V23.1292C26.3084 23.037 26.2466 22.9752 26.1536 22.9752H22.0897L21.997 22.8822V20.3171L22.0897 20.2249H26.9108C27.0039 20.2249 27.0656 20.1624 27.0656 20.0701V18.741C27.0656 18.6479 27.0039 18.5862 26.9108 18.5862Z" fill="url(#paint2_linear_185_166)"/>
<path d="M32.661 18.4165C30.853 18.4165 29.4931 19.282 28.9525 20.9511C28.7359 21.6 28.6742 22.1872 28.6742 23.8406C28.6742 25.4941 28.7359 26.0813 28.9525 26.7302C29.4931 28.3993 30.8531 29.2641 32.661 29.2641C34.4849 29.2641 35.8437 28.3993 36.3855 26.7302C36.6013 26.0813 36.6638 25.4941 36.6638 23.8406C36.6638 22.1871 36.6013 21.6 36.3855 20.9511C35.8437 19.282 34.4848 18.4165 32.661 18.4165ZM34.6233 26.2511C34.3301 27.1009 33.7125 27.6263 32.6609 27.6263C31.6258 27.6263 31.0074 27.1009 30.7138 26.2511C30.5903 25.8648 30.5285 25.3238 30.5285 23.8407C30.5285 22.3412 30.5903 21.8159 30.7138 21.4296C31.0075 20.5798 31.6259 20.0544 32.6609 20.0544C33.7125 20.0544 34.3301 20.5798 34.6233 21.4296C34.7469 21.8158 34.8093 22.3412 34.8093 23.8407C34.8094 25.3238 34.7469 25.8647 34.6233 26.2511Z" fill="url(#paint3_linear_185_166)"/>
</g>
<defs>
<linearGradient id="paint0_linear_185_166" x1="25" y1="0" x2="25" y2="50" gradientUnits="userSpaceOnUse">
<stop stop-color="#E94A9D"/>
<stop offset="0.5" stop-color="#9F7AEA"/>
<stop offset="1" stop-color="#531AFD"/>
</linearGradient>
<linearGradient id="paint1_linear_185_166" x1="14.4223" y1="18.4165" x2="14.4223" y2="29.2642" gradientUnits="userSpaceOnUse">
<stop stop-color="#E94A9D"/>
<stop offset="0.5" stop-color="#9F7AEA"/>
<stop offset="1" stop-color="#531AFD"/>
</linearGradient>
<linearGradient id="paint2_linear_185_166" x1="23.6196" y1="18.5862" x2="23.6196" y2="29.0945" gradientUnits="userSpaceOnUse">
<stop stop-color="#E94A9D"/>
<stop offset="0.5" stop-color="#9F7AEA"/>
<stop offset="1" stop-color="#531AFD"/>
</linearGradient>
<linearGradient id="paint3_linear_185_166" x1="32.669" y1="18.4165" x2="32.669" y2="29.2641" gradientUnits="userSpaceOnUse">
<stop stop-color="#E94A9D"/>
<stop offset="0.5" stop-color="#9F7AEA"/>
<stop offset="1" stop-color="#531AFD"/>
</linearGradient>
<clipPath id="clip0_185_166">
<rect width="50" height="50" fill="white"/>
</clipPath>
</defs>
</svg>
