<svg width="162" height="102" viewBox="0 0 162 102" fill="none" xmlns="http://www.w3.org/2000/svg">
<path d="M161.372 66.7C160.249 59.0198 156.746 51.8825 151.356 46.2877C145.965 40.6929 138.956 36.9209 131.31 35.5C130.199 28.171 127.156 21.2685 122.492 15.5C118.176 10.2133 112.578 6.11525 106.23 3.59496C99.8808 1.07466 92.9918 0.215821 86.2168 1.09999C76.6323 2.74104 67.841 7.4435 61.1652 14.5C52.9196 13.1085 44.4489 14.7828 37.3573 19.2059C30.2658 23.629 25.0458 30.4937 22.6859 38.5C16.3248 40.3496 10.7542 44.2445 6.83998 49.5792C2.92577 54.914 0.887263 61.3898 1.04134 68C0.497823 72.2465 0.871314 76.5598 2.13672 80.6503C3.40212 84.7408 5.53013 88.5137 8.37776 91.7154C11.2254 94.9171 14.7267 97.4736 18.6465 99.213C22.5662 100.952 26.8136 101.834 31.1033 101.8H129.506C138.765 101.069 147.399 96.8507 153.656 90C156.565 86.9114 158.762 83.2259 160.095 79.2013C161.428 75.1767 161.864 70.9101 161.372 66.7ZM148.946 85.3C144.078 90.8416 137.336 94.4012 130.007 95.3H31.1033C30.1012 95.3 8.35641 95.3 8.35641 68.5C8.18025 62.1681 10.4386 56.0089 14.6684 51.2859C18.8981 46.5628 24.7784 43.6339 31.1033 43.1H32.8068C33.665 42.7825 34.3703 42.1514 34.7796 41.3344C35.1889 40.5174 35.2718 39.5757 35.0113 38.7C34.8185 37.8425 34.3095 37.0888 33.5855 36.5886C32.8615 36.0883 31.9754 35.8782 31.1033 36C33.3435 31.1215 37.0578 27.0652 41.7251 24.4C45.8537 22.3025 50.4025 21.1594 55.0341 21.0555C59.6658 20.9517 64.2614 21.8897 68.4802 23.8C68.9067 23.9758 69.3646 24.0632 69.826 24.0571C70.2874 24.051 70.7427 23.9514 71.1644 23.7644C71.5861 23.5773 71.9652 23.3068 72.279 22.9691C72.5927 22.6315 72.8345 22.2337 72.9895 21.8C73.3596 20.9511 73.3776 19.9904 73.0396 19.1283C72.7015 18.2661 72.035 17.5728 71.1858 17.2L69.0815 16.5C74.1319 11.9514 80.3361 8.873 87.0184 7.6C92.6343 6.78892 98.3652 7.46084 103.64 9.54879C108.914 11.6367 113.549 15.0678 117.08 19.5C122.876 27.0458 125.789 36.4051 125.297 45.9C125.297 46.8283 125.667 47.7185 126.325 48.3749C126.982 49.0312 127.874 49.4 128.805 49.4C129.553 49.1781 130.206 48.7133 130.659 48.0793C131.113 47.4454 131.342 46.6784 131.31 45.9C131.31 44.8 131.31 43.9 131.31 42.8C137.149 44.194 142.437 47.3012 146.491 51.7214C150.546 56.1415 153.18 61.6719 154.057 67.6C154.464 70.7799 154.172 74.0101 153.203 77.0665C152.234 80.1229 150.611 82.9324 148.445 85.3H148.946Z" fill="white"/>
<path d="M102.55 31.8C102.65 31.5082 102.65 31.1918 102.55 30.9C102.466 30.4463 102.293 30.0137 102.04 29.627C101.788 29.2404 101.462 28.9074 101.08 28.6472C100.698 28.3869 100.268 28.2046 99.8155 28.1107C99.3628 28.0168 98.896 28.0132 98.4418 28.1C93.4107 29.1916 88.3269 30.026 83.2105 30.6C82.3945 30.7391 81.6542 31.1618 81.1205 31.7931C80.5867 32.4245 80.2939 33.2239 80.2939 34.05C80.2939 34.876 80.5867 35.6755 81.1205 36.3068C81.6542 36.9382 82.3945 37.3609 83.2105 37.5L90.4253 36.5L81.2063 49.4C80.7455 49.8982 80.4445 50.5226 80.342 51.1929C80.2395 51.8631 80.3401 52.5487 80.6309 53.1615C80.9218 53.7742 81.3896 54.2862 81.9742 54.6316C82.5589 54.9771 83.2337 55.1402 83.9119 55.1C84.4223 55.1023 84.9274 54.9966 85.3937 54.7897C85.8601 54.5829 86.2772 54.2796 86.6175 53.9L96.6381 41.2L97.2394 46.3C97.2351 46.7962 97.3366 47.2876 97.5371 47.7416C97.7376 48.1956 98.0326 48.602 98.4024 48.9336C98.7722 49.2652 99.2085 49.5146 99.6823 49.6651C100.156 49.8157 100.656 49.864 101.15 49.8068C101.644 49.7497 102.12 49.5884 102.547 49.3337C102.974 49.0789 103.341 48.7366 103.625 48.3293C103.909 47.922 104.103 47.4591 104.194 46.9713C104.285 46.4835 104.272 45.982 104.154 45.5C103.352 38.1 102.55 32.3 102.55 32.3V31.8Z" fill="white"/>
<path d="M77.0979 73.6L70.0835 75.3L79.0019 62.7C79.2866 62.3313 79.4925 61.9083 79.6067 61.457C79.7209 61.0057 79.7411 60.5359 79.6659 60.0765C79.5908 59.6171 79.4219 59.1781 79.1698 58.7865C78.9177 58.3949 78.5877 58.0591 78.2002 57.8C77.8257 57.5294 77.4012 57.3354 76.9513 57.2291C76.5013 57.1229 76.0347 57.1064 75.5784 57.1808C75.1221 57.2551 74.685 57.4188 74.2922 57.6624C73.8995 57.9059 73.559 58.2246 73.2901 58.6L64.2715 71.8C64.2715 70.3 63.5701 68.6 63.1693 66.8C63.0746 66.3579 62.8925 65.9391 62.6338 65.5681C62.375 65.197 62.0446 64.8812 61.6621 64.6391C61.2795 64.397 60.8524 64.2335 60.4057 64.1581C59.9591 64.0827 59.5019 64.0969 59.0608 64.2C58.161 64.3925 57.3731 64.9303 56.8669 65.6972C56.3608 66.4642 56.177 67.399 56.3552 68.3C57.9585 75.4 58.7602 80.9 58.7602 81.1C58.6598 81.5613 58.6598 82.0387 58.7602 82.5C58.9922 83.2215 59.4464 83.8516 60.0581 84.3004C60.6698 84.7493 61.4079 84.9941 62.1672 85H63.1693C63.1693 85 71.1858 81.8 78.601 80.4C79.4254 80.128 80.1193 79.5606 80.5486 78.8074C80.9779 78.0543 81.112 77.1691 80.925 76.323C80.7379 75.4769 80.2431 74.7301 79.5362 74.2271C78.8292 73.7241 77.9604 73.5006 77.0979 73.6Z" fill="white"/>
</svg>
