<svg width="152" height="101" viewBox="0 0 152 101" fill="none" xmlns="http://www.w3.org/2000/svg">
<path d="M148.232 52.5445C145.351 21.8315 111.006 0 76.8434 0C31.8791 0 34.8597 13.3177 29.8476 13.6952C17.5712 14.5922 0.799927 27.5739 0.799927 42.7297C0.799927 57.9091 7.75821 72.7082 27.996 72.7082C26.7641 78.9961 29.2187 89.1828 51.0767 89.1828C61.5467 89.1828 76.2806 89.1828 81.3585 89.1828C81.3585 104.155 106.322 100.641 115.09 100.641C123.879 100.641 125.311 92.1253 123.708 89.9145C151.107 89.726 154.953 63.8403 148.232 52.5445ZM108.574 12.9581H116.338C118.007 12.9581 119.365 14.189 119.365 15.7115C119.365 17.268 118.007 18.5065 116.338 18.5065H108.574C106.854 18.5065 105.491 17.268 105.491 15.7115C105.491 14.189 106.854 12.9581 108.574 12.9581ZM86.0763 22.5787C86.622 22.5787 87.122 22.5787 87.5879 22.5787C89.2052 22.5787 89.6253 22.3357 89.6253 22.3357C89.7768 22.0693 89.7767 21.0429 89.7767 20.394V12.2914C89.7767 10.7763 91.114 9.52473 92.8199 9.52473C94.4915 9.52473 95.869 10.7763 95.869 12.2914V20.3502C95.9004 21.0429 95.9004 21.8135 95.7803 22.5787H105.902C106.213 22.5787 106.551 22.5657 106.956 22.5657C109.414 22.4727 113.135 22.3744 115.872 24.7504C117.649 26.3042 118.581 28.631 118.581 31.6405V41.3878C118.581 42.3031 118.544 44.211 119.104 44.7359C119.364 44.9555 119.984 44.9712 120.207 44.9712H135.984C137.642 44.9712 139.002 46.2329 139.002 47.7506C139.002 49.3045 137.642 50.5404 135.984 50.5404H120.207C117.401 50.5404 115.681 49.5167 114.755 48.6529C112.38 46.4682 112.389 43.2519 112.455 41.3413V40.9277V31.6405C112.455 30.2393 112.146 29.1947 111.614 28.7243C110.777 27.9925 108.78 28.0547 107.162 28.1192C106.702 28.1192 106.291 28.15 105.902 28.15H85.8217C85.8217 28.15 85.79 28.1192 85.7246 28.1192C83.1784 28.1192 79.5466 28.1192 78.5746 28.9851C78.5147 29.0496 78.286 29.2127 78.286 29.9132V45.0432C78.286 46.587 76.8945 47.8356 75.2284 47.8356C73.5366 47.8356 72.162 46.587 72.162 45.0432V29.9132C72.162 27.4493 73.3281 25.9056 74.2593 25.0527C77.112 22.5192 81.9072 22.5322 86.0763 22.5787ZM59.2721 7.01944C59.2721 5.49162 60.6466 4.23764 62.3097 4.23764C64.0245 4.23764 65.3928 5.49135 65.3928 7.01944V10.0754H70.5339C72.197 10.0754 73.5715 11.3397 73.5715 12.8471C73.5715 14.3906 72.197 15.6368 70.5339 15.6368H65.3928V19.6057C65.3928 21.1178 64.0242 22.3875 62.3097 22.3875C60.6466 22.3875 59.2721 21.1178 59.2721 19.6057V7.01944ZM29.1245 20.9061H41.8468C44.7755 20.8827 48.4475 20.8594 51.1651 23.3259C53.26 25.19 54.2714 28.0161 54.2714 32.0078V34.945H59.0751C60.7696 34.945 62.1213 36.2144 62.1213 37.7475C62.1213 39.2753 60.7696 40.5243 59.0751 40.5243H54.2714V42.8256C54.2714 44.356 52.8828 45.6127 51.2194 45.6127C49.4935 45.6127 48.1275 44.3563 48.1275 42.8256V32.0078C48.1275 29.655 47.673 28.0159 46.8475 27.2868C45.9186 26.4001 43.9411 26.4001 41.8609 26.4671H29.1245C27.3871 26.4671 26.0555 25.2134 26.0555 23.6722C26.0555 22.1649 27.3871 20.9061 29.1245 20.9061ZM26.5669 45.4291V50.4915C26.5669 52.035 25.2153 53.2709 23.472 53.2709C21.7945 53.2709 20.4429 52.035 20.4429 50.4915V45.4291H12.6503C10.9532 45.4291 9.5672 44.1749 9.5672 42.6471C9.5672 41.1139 10.9535 39.8573 12.6503 39.8573H34.1481C35.8 39.8573 37.2086 41.1137 37.2086 42.6471C37.2086 44.1749 35.8 45.4291 34.1481 45.4291H26.5669ZM42.2408 63.6956C40.4805 65.2545 39.6432 67.535 39.6432 70.6789C39.6432 72.1833 38.2487 73.4583 36.5742 73.4583C34.8597 73.4583 33.5137 72.1836 33.5137 70.6789C33.5137 66.0508 35.0024 62.3717 37.9287 59.7602C43.1467 55.1013 51.3591 55.2203 56.243 55.2875C56.7744 55.2875 57.2145 55.2875 57.6463 55.2875H82.399C86.2738 55.2875 89.0942 54.5198 90.6889 52.9841C93.3008 50.4915 93.0891 46.0887 92.9004 42.5103C92.8607 41.6518 92.8205 40.8454 92.8205 40.142C92.8205 38.5959 94.1721 37.3653 95.8437 37.3653C97.5755 37.3653 98.9445 38.5959 98.9445 40.142C98.9445 40.7599 98.9844 41.4967 99.0243 42.2803C99.2504 46.3835 99.5557 52.5936 95.1782 56.7872C92.3291 59.4863 88.0455 60.841 82.399 60.841H57.6463C57.1919 60.841 56.6834 60.841 56.1462 60.841C51.9624 60.7892 45.6127 60.7013 42.2408 63.6956ZM73.9887 75.6504V81.1936C73.9887 82.7477 72.62 83.9679 70.9255 83.9679C69.2366 83.9679 67.8735 82.7477 67.8735 81.1936V75.6504H55.9944C54.3228 75.6504 52.9168 74.4092 52.9168 72.871C52.9168 71.3639 54.3225 70.0966 55.9944 70.0966H94.8406C96.5524 70.0966 97.8982 71.3636 97.8982 72.871C97.8982 74.4092 96.5524 75.6504 94.8406 75.6504H73.9887ZM115.301 89.3456H97.104C95.4122 89.3456 94.0377 88.1123 94.0377 86.5872C94.0377 85.0434 95.4122 83.8051 97.104 83.8051H107.734V78.6394C107.734 77.0675 109.103 75.8573 110.8 75.8573C112.509 75.8573 113.858 77.0675 113.858 78.6394V83.8051H115.301C116.981 83.8051 118.362 85.0434 118.362 86.5872C118.361 88.1123 116.981 89.3456 115.301 89.3456ZM123.251 70.0969V65.5644H109.057C107.371 65.5644 105.988 64.3469 105.988 62.8111C105.988 61.2779 107.371 60.0213 109.057 60.0213H130.503C132.232 60.0213 133.601 61.2779 133.601 62.8111C133.601 64.3469 132.232 65.5644 130.503 65.5644H129.4V70.0969C129.4 71.6614 128.023 72.8713 126.334 72.8713C124.642 72.8713 123.251 71.6614 123.251 70.0969ZM139.002 82.8537H131.244C129.532 82.8537 128.163 81.6438 128.163 80.1003C128.163 78.5568 129.532 77.3363 131.244 77.3363H139.002C140.722 77.3363 142.105 78.5568 142.105 80.1003C142.105 81.6438 140.722 82.8537 139.002 82.8537Z" fill="white"/>
</svg>
