<svg width="110" height="108" viewBox="0 0 110 108" fill="none" xmlns="http://www.w3.org/2000/svg">
<path d="M100.963 9.94009L56.8876 0.0585004C56.4005 -0.0195001 55.9014 -0.0195001 55.4143 0.0585004C55.0074 0.0044687 54.5935 0.0044687 54.1866 0.0585004L9.86531 9.94009C7.05511 10.5572 4.58341 12.0283 2.88715 14.0935C1.1909 16.1587 0.379331 18.6849 0.595909 21.2256L3.17416 50.9784C4.20674 62.7809 8.89509 74.109 16.7302 83.7331C24.5654 93.3572 35.2479 100.91 47.6182 105.57L53.0202 107.622C53.701 107.872 54.4312 108 55.1688 108C55.9063 108 56.6365 107.872 57.3173 107.622L62.7193 105.57C75.0896 100.91 85.7722 93.3572 93.6073 83.7331C101.442 74.109 106.131 62.7809 107.163 50.9784L109.742 21.2256C109.984 18.7424 109.242 16.262 107.642 14.2051C106.042 12.1481 103.682 10.6413 100.963 9.94009ZM78.1888 41.6908L53.6341 63.2899C53.0634 63.796 52.3845 64.1977 51.6364 64.4718C50.8884 64.746 50.086 64.8871 49.2756 64.8871C48.4653 64.8871 47.6629 64.746 46.9148 64.4718C46.1668 64.1977 45.4878 63.796 44.9172 63.2899L32.6398 52.4903C31.4839 51.4735 30.8345 50.0944 30.8345 48.6565C30.8345 47.2185 31.4839 45.8394 32.6398 44.8226C33.7958 43.8058 35.3635 43.2346 36.9983 43.2346C38.633 43.2346 40.2008 43.8058 41.3567 44.8226L49.2756 51.8423L69.4719 34.0231C70.6278 33.0063 72.1956 32.4351 73.8304 32.4351C75.4651 32.4351 77.0329 33.0063 78.1888 34.0231C79.3447 35.0399 79.9941 36.419 79.9941 37.8569C79.9941 39.2949 79.3447 40.674 78.1888 41.6908Z" fill="white"/>
</svg>
